{"glyphs":{"0":{"ha":868,"x_min":0,"x_max":608,"o":"m 174 0 l 174 87 l 434 87 l 434 0 l 174 0 m 87 87 l 87 174 l 174 174 l 174 87 l 87 87 m 434 87 l 434 174 l 521 174 l 521 87 l 434 87 m 174 174 l 174 260 l 260 260 l 260 174 l 174 174 m 260 260 l 260 347 l 347 347 l 347 260 l 260 260 m 0 174 l 0 434 l 87 434 l 87 174 l 0 174 m 347 347 l 347 434 l 434 434 l 434 347 l 347 347 m 521 174 l 521 434 l 608 434 l 608 174 l 521 174 m 87 434 l 87 521 l 174 521 l 174 434 l 87 434 m 434 434 l 434 521 l 521 521 l 521 434 l 434 434 m 174 521 l 174 608 l 434 608 l 434 521 l 174 521 z "},"1":{"ha":868,"x_min":0,"x_max":608,"o":"m 0 0 l 0 87 l 260 87 l 260 434 l 87 434 l 87 521 l 260 521 l 260 608 l 347 608 l 347 87 l 608 87 l 608 0 l 0 0 z "},"2":{"ha":868,"x_min":0,"x_max":608,"o":"m 0 0 l 0 260 l 87 260 l 87 87 l 608 87 l 608 0 l 0 0 m 87 260 l 87 347 l 521 347 l 521 260 l 87 260 m 0 434 l 0 521 l 87 521 l 87 434 l 0 434 m 521 347 l 521 521 l 608 521 l 608 347 l 521 347 m 87 521 l 87 608 l 521 608 l 521 521 l 87 521 z "},"3":{"ha":868,"x_min":0,"x_max":608,"o":"m 87 0 l 87 87 l 521 87 l 521 0 l 87 0 m 0 87 l 0 174 l 87 174 l 87 87 l 0 87 m 521 87 l 521 260 l 608 260 l 608 87 l 521 87 m 174 260 l 174 347 l 521 347 l 521 260 l 174 260 m 0 434 l 0 521 l 87 521 l 87 434 l 0 434 m 521 347 l 521 521 l 608 521 l 608 347 l 521 347 m 87 521 l 87 608 l 521 608 l 521 521 l 87 521 z "},"4":{"ha":868,"x_min":0,"x_max":608,"o":"m 521 0 l 521 260 l 0 260 l 0 608 l 87 608 l 87 347 l 521 347 l 521 521 l 608 521 l 608 0 l 521 0 z "},"5":{"ha":868,"x_min":0,"x_max":608,"o":"m 0 0 l 0 87 l 521 87 l 521 0 l 0 0 m 521 87 l 521 260 l 608 260 l 608 87 l 521 87 m 0 260 l 0 608 l 608 608 l 608 521 l 87 521 l 87 347 l 521 347 l 521 260 l 0 260 z "},"6":{"ha":868,"x_min":0,"x_max":608,"o":"m 87 0 l 87 87 l 521 87 l 521 0 l 87 0 m 521 87 l 521 260 l 608 260 l 608 87 l 521 87 m 0 87 l 0 521 l 87 521 l 87 347 l 521 347 l 521 260 l 87 260 l 87 87 l 0 87 m 87 521 l 87 608 l 434 608 l 434 521 l 87 521 z "},"7":{"ha":868,"x_min":0,"x_max":608,"o":"m 87 0 l 87 87 l 174 87 l 174 0 l 87 0 m 174 87 l 174 174 l 260 174 l 260 87 l 174 87 m 260 174 l 260 260 l 347 260 l 347 174 l 260 174 m 347 260 l 347 347 l 434 347 l 434 260 l 347 260 m 434 347 l 434 434 l 521 434 l 521 347 l 434 347 m 521 434 l 521 521 l 0 521 l 0 608 l 608 608 l 608 434 l 521 434 z "},"8":{"ha":868,"x_min":0,"x_max":608,"o":"m 87 0 l 87 87 l 521 87 l 521 0 l 87 0 m 0 87 l 0 260 l 87 260 l 87 87 l 0 87 m 521 87 l 521 260 l 608 260 l 608 87 l 521 87 m 87 260 l 87 347 l 521 347 l 521 260 l 87 260 m 0 347 l 0 521 l 87 521 l 87 347 l 0 347 m 521 347 l 521 521 l 608 521 l 608 347 l 521 347 m 87 521 l 87 608 l 521 608 l 521 521 l 87 521 z "},"9":{"ha":868,"x_min":0,"x_max":608,"o":"m 87 0 l 87 87 l 521 87 l 521 0 l 87 0 m 0 347 l 0 521 l 87 521 l 87 347 l 0 347 m 521 87 l 521 260 l 87 260 l 87 347 l 521 347 l 521 521 l 608 521 l 608 87 l 521 87 m 87 521 l 87 608 l 521 608 l 521 521 l 87 521 z "}," ":{"ha":868,"x_min":0,"x_max":0,"o":""},"!":{"ha":868,"x_min":260,"x_max":347,"o":"m 260 0 l 260 87 l 347 87 l 347 0 l 260 0 m 260 260 l 260 608 l 347 608 l 347 260 l 260 260 z "},"\"":{"ha":868,"x_min":174,"x_max":434,"o":"m 174 434 l 174 694 l 260 694 l 260 434 l 174 434 m 347 434 l 347 694 l 434 694 l 434 434 l 347 434 z "},"#":{"ha":868,"x_min":0,"x_max":608,"o":"m 347 260 l 347 347 l 260 347 l 260 260 l 347 260 m 174 0 l 174 174 l 0 174 l 0 260 l 174 260 l 174 347 l 0 347 l 0 434 l 174 434 l 174 608 l 260 608 l 260 434 l 347 434 l 347 608 l 434 608 l 434 434 l 608 434 l 608 347 l 434 347 l 434 260 l 608 260 l 608 174 l 434 174 l 434 0 l 347 0 l 347 174 l 260 174 l 260 0 l 174 0 z "},"$":{"ha":868,"x_min":0,"x_max":608,"o":"m 0 87 l 0 174 l 87 174 l 87 87 l 0 87 m 347 87 l 347 260 l 260 260 l 260 87 l 347 87 m 521 87 l 521 260 l 608 260 l 608 87 l 521 87 m 0 347 l 0 521 l 87 521 l 87 347 l 0 347 m 347 347 l 347 521 l 260 521 l 260 347 l 347 347 m 521 434 l 521 521 l 608 521 l 608 434 l 521 434 m 174 -87 l 174 0 l 87 0 l 87 87 l 174 87 l 174 260 l 87 260 l 87 347 l 174 347 l 174 521 l 87 521 l 87 608 l 174 608 l 174 694 l 260 694 l 260 608 l 347 608 l 347 694 l 434 694 l 434 608 l 521 608 l 521 521 l 434 521 l 434 347 l 521 347 l 521 260 l 434 260 l 434 87 l 521 87 l 521 0 l 434 0 l 434 -87 l 347 -87 l 347 0 l 260 0 l 260 -87 l 174 -87 z "},"%":{"ha":868,"x_min":0,"x_max":608,"o":"m 0 0 l 0 87 l 87 87 l 87 0 l 0 0 m 87 87 l 87 174 l 174 174 l 174 87 l 87 87 m 521 87 l 521 174 l 434 174 l 434 87 l 521 87 m 174 174 l 174 260 l 260 260 l 260 174 l 174 174 m 347 0 l 347 260 l 608 260 l 608 0 l 347 0 m 260 260 l 260 347 l 347 347 l 347 260 l 260 260 m 347 347 l 347 434 l 434 434 l 434 347 l 347 347 m 174 434 l 174 521 l 87 521 l 87 434 l 174 434 m 434 434 l 434 521 l 521 521 l 521 434 l 434 434 m 0 347 l 0 608 l 260 608 l 260 347 l 0 347 m 521 521 l 521 608 l 608 608 l 608 521 l 521 521 z "},"&":{"ha":868,"x_min":0,"x_max":608,"o":"m 87 0 l 87 87 l 347 87 l 347 0 l 87 0 m 434 0 l 434 87 l 608 87 l 608 0 l 434 0 m 347 87 l 347 174 l 434 174 l 434 87 l 347 87 m 260 174 l 260 260 l 347 260 l 347 174 l 260 174 m 434 174 l 434 260 l 521 260 l 521 174 l 434 174 m 0 87 l 0 347 l 87 347 l 87 87 l 0 87 m 521 260 l 521 347 l 608 347 l 608 260 l 521 260 m 174 260 l 174 347 l 87 347 l 87 434 l 260 434 l 260 260 l 174 260 m 0 434 l 0 521 l 87 521 l 87 434 l 0 434 m 260 434 l 260 521 l 347 521 l 347 434 l 260 434 m 87 521 l 87 608 l 260 608 l 260 521 l 87 521 z "},"'":{"ha":868,"x_min":174,"x_max":347,"o":"m 174 434 l 174 521 l 260 521 l 260 434 l 174 434 m 260 521 l 260 608 l 174 608 l 174 694 l 347 694 l 347 521 l 260 521 z "},"(":{"ha":868,"x_min":260,"x_max":521,"o":"m 434 0 l 434 87 l 521 87 l 521 0 l 434 0 m 347 87 l 347 174 l 434 174 l 434 87 l 347 87 m 260 174 l 260 434 l 347 434 l 347 174 l 260 174 m 347 434 l 347 521 l 434 521 l 434 434 l 347 434 m 434 521 l 434 608 l 521 608 l 521 521 l 434 521 z "},")":{"ha":868,"x_min":87,"x_max":347,"o":"m 87 0 l 87 87 l 174 87 l 174 0 l 87 0 m 174 87 l 174 174 l 260 174 l 260 87 l 174 87 m 260 174 l 260 434 l 347 434 l 347 174 l 260 174 m 174 434 l 174 521 l 260 521 l 260 434 l 174 434 m 87 521 l 87 608 l 174 608 l 174 521 l 87 521 z "},"*":{"ha":868,"x_min":87,"x_max":521,"o":"m 87 260 l 87 347 l 174 347 l 174 260 l 87 260 m 260 174 l 260 347 l 347 347 l 347 174 l 260 174 m 434 260 l 434 347 l 521 347 l 521 260 l 434 260 m 174 347 l 174 434 l 260 434 l 260 347 l 174 347 m 347 347 l 347 434 l 434 434 l 434 347 l 347 347 m 87 434 l 87 521 l 174 521 l 174 434 l 87 434 m 434 434 l 434 521 l 521 521 l 521 434 l 434 434 m 260 434 l 260 608 l 347 608 l 347 434 l 260 434 z "},"+":{"ha":868,"x_min":87,"x_max":521,"o":"m 260 87 l 260 260 l 87 260 l 87 347 l 260 347 l 260 521 l 347 521 l 347 347 l 521 347 l 521 260 l 347 260 l 347 87 l 260 87 z "},",":{"ha":868,"x_min":0,"x_max":174,"o":"m 0 -87 l 0 0 l 87 0 l 87 -87 l 0 -87 m 87 0 l 87 87 l 0 87 l 0 174 l 174 174 l 174 0 l 87 0 z "},"-":{"ha":868,"x_min":87,"x_max":521,"o":"m 87 260 l 87 347 l 521 347 l 521 260 l 87 260 z "},".":{"ha":868,"x_min":0,"x_max":174,"o":"m 0 0 l 0 174 l 174 174 l 174 0 l 0 0 z "},"/":{"ha":868,"x_min":0,"x_max":608,"o":"m 0 0 l 0 87 l 87 87 l 87 0 l 0 0 m 87 87 l 87 174 l 174 174 l 174 87 l 87 87 m 174 174 l 174 260 l 260 260 l 260 174 l 174 174 m 260 260 l 260 347 l 347 347 l 347 260 l 260 260 m 347 347 l 347 434 l 434 434 l 434 347 l 347 347 m 434 434 l 434 521 l 521 521 l 521 434 l 434 434 m 521 521 l 521 608 l 608 608 l 608 521 l 521 521 z "},":":{"ha":868,"x_min":174,"x_max":347,"o":"m 174 87 l 174 260 l 347 260 l 347 87 l 174 87 m 174 347 l 174 521 l 347 521 l 347 347 l 174 347 z "},";":{"ha":868,"x_min":174,"x_max":347,"o":"m 174 0 l 174 87 l 260 87 l 260 0 l 174 0 m 260 87 l 260 174 l 174 174 l 174 260 l 347 260 l 347 87 l 260 87 m 174 347 l 174 521 l 347 521 l 347 347 l 174 347 z "},"<":{"ha":868,"x_min":0,"x_max":347,"o":"m 260 0 l 260 87 l 347 87 l 347 0 l 260 0 m 174 87 l 174 174 l 260 174 l 260 87 l 174 87 m 87 174 l 87 260 l 174 260 l 174 174 l 87 174 m 0 260 l 0 347 l 87 347 l 87 260 l 0 260 m 87 347 l 87 434 l 174 434 l 174 347 l 87 347 m 174 434 l 174 521 l 260 521 l 260 434 l 174 434 m 260 521 l 260 608 l 347 608 l 347 521 l 260 521 z "},"=":{"ha":868,"x_min":87,"x_max":521,"o":"m 87 174 l 87 260 l 521 260 l 521 174 l 87 174 m 87 347 l 87 434 l 521 434 l 521 347 l 87 347 z "},">":{"ha":868,"x_min":0,"x_max":347,"o":"m 0 0 l 0 87 l 87 87 l 87 0 l 0 0 m 87 87 l 87 174 l 174 174 l 174 87 l 87 87 m 174 174 l 174 260 l 260 260 l 260 174 l 174 174 m 260 260 l 260 347 l 347 347 l 347 260 l 260 260 m 174 347 l 174 434 l 260 434 l 260 347 l 174 347 m 87 434 l 87 521 l 174 521 l 174 434 l 87 434 m 0 521 l 0 608 l 87 608 l 87 521 l 0 521 z "},"?":{"ha":868,"x_min":0,"x_max":608,"o":"m 260 0 l 260 87 l 347 87 l 347 0 l 260 0 m 260 174 l 260 260 l 347 260 l 347 174 l 260 174 m 347 260 l 347 347 l 521 347 l 521 260 l 347 260 m 0 434 l 0 521 l 87 521 l 87 434 l 0 434 m 521 347 l 521 521 l 608 521 l 608 347 l 521 347 m 87 521 l 87 608 l 521 608 l 521 521 l 87 521 z "},"@":{"ha":868,"x_min":0,"x_max":608,"o":"m 174 0 l 174 87 l 608 87 l 608 0 l 174 0 m 87 87 l 87 174 l 174 174 l 174 87 l 87 87 m 347 260 l 347 347 l 260 347 l 260 260 l 347 260 m 0 174 l 0 434 l 87 434 l 87 174 l 0 174 m 174 174 l 174 434 l 434 434 l 434 260 l 521 260 l 521 434 l 608 434 l 608 174 l 174 174 m 87 434 l 87 521 l 174 521 l 174 434 l 87 434 m 434 434 l 434 521 l 521 521 l 521 434 l 434 434 m 174 521 l 174 608 l 434 608 l 434 521 l 174 521 z "},"A":{"ha":868,"x_min":0,"x_max":608,"o":"m 0 0 l 0 174 l 87 174 l 87 0 l 0 0 m 521 0 l 521 174 l 608 174 l 608 0 l 521 0 m 87 174 l 87 347 l 174 347 l 174 260 l 434 260 l 434 347 l 521 347 l 521 174 l 87 174 m 174 347 l 174 521 l 260 521 l 260 347 l 174 347 m 347 347 l 347 521 l 434 521 l 434 347 l 347 347 m 260 521 l 260 608 l 347 608 l 347 521 l 260 521 z "},"B":{"ha":868,"x_min":0,"x_max":608,"o":"m 521 87 l 521 260 l 608 260 l 608 87 l 521 87 m 521 347 l 521 521 l 608 521 l 608 347 l 521 347 m 0 0 l 0 608 l 521 608 l 521 521 l 87 521 l 87 347 l 521 347 l 521 260 l 87 260 l 87 87 l 521 87 l 521 0 l 0 0 z "},"C":{"ha":868,"x_min":0,"x_max":608,"o":"m 174 0 l 174 87 l 521 87 l 521 0 l 174 0 m 87 87 l 87 174 l 174 174 l 174 87 l 87 87 m 521 87 l 521 174 l 608 174 l 608 87 l 521 87 m 0 174 l 0 434 l 87 434 l 87 174 l 0 174 m 87 434 l 87 521 l 174 521 l 174 434 l 87 434 m 521 434 l 521 521 l 608 521 l 608 434 l 521 434 m 174 521 l 174 608 l 521 608 l 521 521 l 174 521 z "},"D":{"ha":868,"x_min":0,"x_max":608,"o":"m 434 87 l 434 174 l 521 174 l 521 87 l 434 87 m 521 174 l 521 434 l 608 434 l 608 174 l 521 174 m 434 434 l 434 521 l 521 521 l 521 434 l 434 434 m 0 0 l 0 608 l 434 608 l 434 521 l 87 521 l 87 87 l 434 87 l 434 0 l 0 0 z "},"E":{"ha":868,"x_min":0,"x_max":608,"o":"m 0 0 l 0 608 l 608 608 l 608 521 l 87 521 l 87 347 l 434 347 l 434 260 l 87 260 l 87 87 l 608 87 l 608 0 l 0 0 z "},"F":{"ha":868,"x_min":0,"x_max":608,"o":"m 0 0 l 0 608 l 608 608 l 608 521 l 87 521 l 87 347 l 434 347 l 434 260 l 87 260 l 87 0 l 0 0 z "},"G":{"ha":868,"x_min":0,"x_max":608,"o":"m 174 0 l 174 87 l 434 87 l 434 0 l 174 0 m 87 87 l 87 174 l 174 174 l 174 87 l 87 87 m 521 0 l 521 87 l 434 87 l 434 174 l 521 174 l 521 260 l 347 260 l 347 347 l 608 347 l 608 0 l 521 0 m 0 174 l 0 434 l 87 434 l 87 174 l 0 174 m 87 434 l 87 521 l 174 521 l 174 434 l 87 434 m 521 434 l 521 521 l 608 521 l 608 434 l 521 434 m 174 521 l 174 608 l 521 608 l 521 521 l 174 521 z "},"H":{"ha":868,"x_min":0,"x_max":608,"o":"m 0 0 l 0 608 l 87 608 l 87 347 l 521 347 l 521 608 l 608 608 l 608 0 l 521 0 l 521 260 l 87 260 l 87 0 l 0 0 z "},"I":{"ha":868,"x_min":0,"x_max":608,"o":"m 0 0 l 0 87 l 260 87 l 260 521 l 0 521 l 0 608 l 608 608 l 608 521 l 347 521 l 347 87 l 608 87 l 608 0 l 0 0 z "},"J":{"ha":868,"x_min":0,"x_max":608,"o":"m 174 0 l 174 87 l 434 87 l 434 0 l 174 0 m 87 87 l 87 174 l 174 174 l 174 87 l 87 87 m 434 87 l 434 174 l 521 174 l 521 87 l 434 87 m 0 174 l 0 260 l 87 260 l 87 174 l 0 174 m 521 174 l 521 608 l 608 608 l 608 174 l 521 174 z "},"K":{"ha":868,"x_min":0,"x_max":608,"o":"m 521 0 l 521 87 l 608 87 l 608 0 l 521 0 m 434 87 l 434 174 l 521 174 l 521 87 l 434 87 m 347 174 l 347 260 l 434 260 l 434 174 l 347 174 m 347 347 l 347 434 l 434 434 l 434 347 l 347 347 m 434 434 l 434 521 l 521 521 l 521 434 l 434 434 m 0 0 l 0 608 l 87 608 l 87 347 l 347 347 l 347 260 l 87 260 l 87 0 l 0 0 m 521 521 l 521 608 l 608 608 l 608 521 l 521 521 z "},"L":{"ha":868,"x_min":0,"x_max":608,"o":"m 0 0 l 0 608 l 87 608 l 87 87 l 608 87 l 608 0 l 0 0 z "},"M":{"ha":868,"x_min":0,"x_max":608,"o":"m 260 0 l 260 174 l 347 174 l 347 0 l 260 0 m 174 174 l 174 347 l 260 347 l 260 174 l 174 174 m 347 174 l 347 347 l 434 347 l 434 174 l 347 174 m 0 0 l 0 608 l 87 608 l 87 521 l 174 521 l 174 347 l 87 347 l 87 0 l 0 0 m 521 0 l 521 347 l 434 347 l 434 521 l 521 521 l 521 608 l 608 608 l 608 0 l 521 0 z "},"N":{"ha":868,"x_min":0,"x_max":608,"o":"m 347 87 l 347 260 l 434 260 l 434 87 l 347 87 m 260 260 l 260 434 l 347 434 l 347 260 l 260 260 m 174 434 l 174 521 l 260 521 l 260 434 l 174 434 m 0 0 l 0 608 l 174 608 l 174 521 l 87 521 l 87 0 l 0 0 m 434 0 l 434 87 l 521 87 l 521 608 l 608 608 l 608 0 l 434 0 z "},"O":{"ha":868,"x_min":0,"x_max":608,"o":"m 174 0 l 174 87 l 434 87 l 434 0 l 174 0 m 87 87 l 87 174 l 174 174 l 174 87 l 87 87 m 434 87 l 434 174 l 521 174 l 521 87 l 434 87 m 0 174 l 0 434 l 87 434 l 87 174 l 0 174 m 521 174 l 521 434 l 608 434 l 608 174 l 521 174 m 87 434 l 87 521 l 174 521 l 174 434 l 87 434 m 434 434 l 434 521 l 521 521 l 521 434 l 434 434 m 174 521 l 174 608 l 434 608 l 434 521 l 174 521 z "},"P":{"ha":868,"x_min":0,"x_max":608,"o":"m 521 347 l 521 521 l 608 521 l 608 347 l 521 347 m 0 0 l 0 608 l 521 608 l 521 521 l 87 521 l 87 347 l 521 347 l 521 260 l 87 260 l 87 0 l 0 0 z "},"Q":{"ha":868,"x_min":0,"x_max":608,"o":"m 174 0 l 174 87 l 434 87 l 434 0 l 174 0 m 521 0 l 521 87 l 608 87 l 608 0 l 521 0 m 87 87 l 87 174 l 174 174 l 174 87 l 87 87 m 434 87 l 434 174 l 521 174 l 521 87 l 434 87 m 347 174 l 347 260 l 434 260 l 434 174 l 347 174 m 0 174 l 0 434 l 87 434 l 87 174 l 0 174 m 521 174 l 521 434 l 608 434 l 608 174 l 521 174 m 87 434 l 87 521 l 174 521 l 174 434 l 87 434 m 434 434 l 434 521 l 521 521 l 521 434 l 434 434 m 174 521 l 174 608 l 434 608 l 434 521 l 174 521 z "},"R":{"ha":868,"x_min":0,"x_max":608,"o":"m 521 0 l 521 260 l 608 260 l 608 0 l 521 0 m 521 347 l 521 521 l 608 521 l 608 347 l 521 347 m 0 0 l 0 608 l 521 608 l 521 521 l 87 521 l 87 347 l 521 347 l 521 260 l 87 260 l 87 0 l 0 0 z "},"S":{"ha":868,"x_min":0,"x_max":608,"o":"m 87 0 l 87 87 l 521 87 l 521 0 l 87 0 m 0 87 l 0 174 l 87 174 l 87 87 l 0 87 m 521 87 l 521 260 l 608 260 l 608 87 l 521 87 m 87 260 l 87 347 l 521 347 l 521 260 l 87 260 m 0 347 l 0 521 l 87 521 l 87 347 l 0 347 m 521 434 l 521 521 l 608 521 l 608 434 l 521 434 m 87 521 l 87 608 l 521 608 l 521 521 l 87 521 z "},"T":{"ha":868,"x_min":0,"x_max":608,"o":"m 260 0 l 260 521 l 0 521 l 0 608 l 608 608 l 608 521 l 347 521 l 347 0 l 260 0 z "},"U":{"ha":868,"x_min":0,"x_max":608,"o":"m 174 0 l 174 87 l 434 87 l 434 0 l 174 0 m 87 87 l 87 174 l 174 174 l 174 87 l 87 87 m 434 87 l 434 174 l 521 174 l 521 87 l 434 87 m 0 174 l 0 608 l 87 608 l 87 174 l 0 174 m 521 174 l 521 608 l 608 608 l 608 174 l 521 174 z "},"V":{"ha":868,"x_min":0,"x_max":608,"o":"m 260 0 l 260 87 l 347 87 l 347 0 l 260 0 m 174 87 l 174 260 l 260 260 l 260 87 l 174 87 m 347 87 l 347 260 l 434 260 l 434 87 l 347 87 m 87 260 l 87 434 l 174 434 l 174 260 l 87 260 m 434 260 l 434 434 l 521 434 l 521 260 l 434 260 m 0 434 l 0 608 l 87 608 l 87 434 l 0 434 m 521 434 l 521 608 l 608 608 l 608 434 l 521 434 z "},"W":{"ha":868,"x_min":0,"x_max":608,"o":"m 87 0 l 87 174 l 174 174 l 174 0 l 87 0 m 434 0 l 434 174 l 521 174 l 521 0 l 434 0 m 174 174 l 174 347 l 260 347 l 260 174 l 174 174 m 347 174 l 347 347 l 434 347 l 434 174 l 347 174 m 260 347 l 260 521 l 347 521 l 347 347 l 260 347 m 0 174 l 0 608 l 87 608 l 87 174 l 0 174 m 521 174 l 521 608 l 608 608 l 608 174 l 521 174 z "},"X":{"ha":868,"x_min":0,"x_max":608,"o":"m 0 0 l 0 87 l 87 87 l 87 0 l 0 0 m 521 0 l 521 87 l 608 87 l 608 0 l 521 0 m 87 87 l 87 174 l 174 174 l 174 87 l 87 87 m 434 87 l 434 174 l 521 174 l 521 87 l 434 87 m 174 174 l 174 260 l 260 260 l 260 174 l 174 174 m 347 174 l 347 260 l 434 260 l 434 174 l 347 174 m 260 260 l 260 347 l 347 347 l 347 260 l 260 260 m 174 347 l 174 434 l 260 434 l 260 347 l 174 347 m 347 347 l 347 434 l 434 434 l 434 347 l 347 347 m 87 434 l 87 521 l 174 521 l 174 434 l 87 434 m 434 434 l 434 521 l 521 521 l 521 434 l 434 434 m 0 521 l 0 608 l 87 608 l 87 521 l 0 521 m 521 521 l 521 608 l 608 608 l 608 521 l 521 521 z "},"Y":{"ha":868,"x_min":0,"x_max":608,"o":"m 260 0 l 260 347 l 347 347 l 347 0 l 260 0 m 174 347 l 174 434 l 260 434 l 260 347 l 174 347 m 347 347 l 347 434 l 434 434 l 434 347 l 347 347 m 87 434 l 87 521 l 174 521 l 174 434 l 87 434 m 434 434 l 434 521 l 521 521 l 521 434 l 434 434 m 0 521 l 0 608 l 87 608 l 87 521 l 0 521 m 521 521 l 521 608 l 608 608 l 608 521 l 521 521 z "},"Z":{"ha":868,"x_min":0,"x_max":608,"o":"m 0 0 l 0 87 l 87 87 l 87 174 l 174 174 l 174 87 l 608 87 l 608 0 l 0 0 m 174 174 l 174 260 l 260 260 l 260 174 l 174 174 m 260 260 l 260 347 l 347 347 l 347 260 l 260 260 m 347 347 l 347 434 l 434 434 l 434 347 l 347 347 m 434 434 l 434 521 l 0 521 l 0 608 l 608 608 l 608 521 l 521 521 l 521 434 l 434 434 z "},"[":{"ha":868,"x_min":174,"x_max":434,"o":"m 174 0 l 174 608 l 434 608 l 434 521 l 260 521 l 260 87 l 434 87 l 434 0 l 174 0 z "},"\\":{"ha":868,"x_min":0,"x_max":608,"o":"m 521 0 l 521 87 l 608 87 l 608 0 l 521 0 m 434 87 l 434 174 l 521 174 l 521 87 l 434 87 m 347 174 l 347 260 l 434 260 l 434 174 l 347 174 m 260 260 l 260 347 l 347 347 l 347 260 l 260 260 m 174 347 l 174 434 l 260 434 l 260 347 l 174 347 m 87 434 l 87 521 l 174 521 l 174 434 l 87 434 m 0 521 l 0 608 l 87 608 l 87 521 l 0 521 z "},"]":{"ha":868,"x_min":174,"x_max":434,"o":"m 174 0 l 174 87 l 347 87 l 347 521 l 174 521 l 174 608 l 434 608 l 434 0 l 174 0 z "},"^":{"ha":868,"x_min":87,"x_max":521,"o":"m 87 347 l 87 434 l 174 434 l 174 347 l 87 347 m 434 347 l 434 434 l 521 434 l 521 347 l 434 347 m 174 434 l 174 521 l 260 521 l 260 434 l 174 434 m 347 434 l 347 521 l 434 521 l 434 434 l 347 434 m 260 521 l 260 608 l 347 608 l 347 521 l 260 521 z "},"_":{"ha":868,"x_min":0,"x_max":608,"o":"m 0 0 l 0 87 l 608 87 l 608 0 l 0 0 z "},"`":{"ha":868,"x_min":174,"x_max":434,"o":"m 347 347 l 347 434 l 434 434 l 434 347 l 347 347 m 260 434 l 260 521 l 347 521 l 347 434 l 260 434 m 174 521 l 174 608 l 260 608 l 260 521 l 174 521 z "},"a":{"ha":868,"x_min":0,"x_max":608,"o":"m 0 87 l 0 260 l 87 260 l 87 87 l 0 87 m 87 0 l 87 87 l 521 87 l 521 260 l 87 260 l 87 347 l 521 347 l 521 434 l 608 434 l 608 0 l 87 0 m 87 434 l 87 521 l 521 521 l 521 434 l 87 434 z "},"b":{"ha":868,"x_min":0,"x_max":608,"o":"m 521 87 l 521 434 l 608 434 l 608 87 l 521 87 m 0 0 l 0 694 l 87 694 l 87 521 l 521 521 l 521 434 l 87 434 l 87 87 l 521 87 l 521 0 l 0 0 z "},"c":{"ha":868,"x_min":0,"x_max":608,"o":"m 87 0 l 87 87 l 521 87 l 521 0 l 87 0 m 521 87 l 521 174 l 608 174 l 608 87 l 521 87 m 0 87 l 0 434 l 87 434 l 87 87 l 0 87 m 521 347 l 521 434 l 608 434 l 608 347 l 521 347 m 87 434 l 87 521 l 521 521 l 521 434 l 87 434 z "},"d":{"ha":868,"x_min":0,"x_max":608,"o":"m 0 87 l 0 434 l 87 434 l 87 87 l 0 87 m 87 0 l 87 87 l 521 87 l 521 434 l 87 434 l 87 521 l 521 521 l 521 694 l 608 694 l 608 0 l 87 0 z "},"e":{"ha":868,"x_min":0,"x_max":608,"o":"m 87 0 l 87 87 l 521 87 l 521 0 l 87 0 m 521 87 l 521 174 l 608 174 l 608 87 l 521 87 m 0 87 l 0 434 l 87 434 l 87 347 l 521 347 l 521 434 l 608 434 l 608 260 l 87 260 l 87 87 l 0 87 m 87 434 l 87 521 l 521 521 l 521 434 l 87 434 z "},"f":{"ha":868,"x_min":0,"x_max":608,"o":"m 174 0 l 174 434 l 0 434 l 0 521 l 174 521 l 174 608 l 260 608 l 260 521 l 608 521 l 608 434 l 260 434 l 260 0 l 174 0 m 260 608 l 260 694 l 608 694 l 608 608 l 260 608 z "},"g":{"ha":868,"x_min":0,"x_max":608,"o":"m 87 -174 l 87 -87 l 521 -87 l 521 -174 l 87 -174 m 0 174 l 0 434 l 87 434 l 87 174 l 0 174 m 521 -87 l 521 87 l 87 87 l 87 174 l 521 174 l 521 434 l 87 434 l 87 521 l 608 521 l 608 -87 l 521 -87 z "},"h":{"ha":868,"x_min":0,"x_max":608,"o":"m 521 0 l 521 434 l 608 434 l 608 0 l 521 0 m 0 0 l 0 694 l 87 694 l 87 521 l 521 521 l 521 434 l 87 434 l 87 0 l 0 0 z "},"i":{"ha":868,"x_min":0,"x_max":608,"o":"m 0 0 l 0 87 l 260 87 l 260 434 l 87 434 l 87 521 l 347 521 l 347 87 l 608 87 l 608 0 l 0 0 m 260 608 l 260 694 l 347 694 l 347 608 l 260 608 z "},"j":{"ha":868,"x_min":0,"x_max":608,"o":"m 87 -174 l 87 -87 l 521 -87 l 521 -174 l 87 -174 m 0 -87 l 0 0 l 87 0 l 87 -87 l 0 -87 m 521 -87 l 521 434 l 260 434 l 260 521 l 608 521 l 608 -87 l 521 -87 m 521 608 l 521 694 l 608 694 l 608 608 l 521 608 z "},"k":{"ha":868,"x_min":0,"x_max":608,"o":"m 521 0 l 521 87 l 608 87 l 608 0 l 521 0 m 434 87 l 434 174 l 521 174 l 521 87 l 434 87 m 347 174 l 347 260 l 434 260 l 434 174 l 347 174 m 347 347 l 347 434 l 434 434 l 434 347 l 347 347 m 434 434 l 434 521 l 608 521 l 608 434 l 434 434 m 0 0 l 0 694 l 87 694 l 87 347 l 347 347 l 347 260 l 87 260 l 87 0 l 0 0 z "},"l":{"ha":868,"x_min":0,"x_max":608,"o":"m 260 0 l 260 608 l 0 608 l 0 694 l 347 694 l 347 87 l 608 87 l 608 0 l 260 0 z "},"m":{"ha":868,"x_min":0,"x_max":608,"o":"m 260 0 l 260 434 l 347 434 l 347 0 l 260 0 m 521 0 l 521 434 l 608 434 l 608 0 l 521 0 m 0 0 l 0 521 l 260 521 l 260 434 l 87 434 l 87 0 l 0 0 m 347 434 l 347 521 l 521 521 l 521 434 l 347 434 z "},"n":{"ha":868,"x_min":0,"x_max":608,"o":"m 521 0 l 521 434 l 608 434 l 608 0 l 521 0 m 0 0 l 0 521 l 521 521 l 521 434 l 87 434 l 87 0 l 0 0 z "},"o":{"ha":868,"x_min":0,"x_max":608,"o":"m 87 0 l 87 87 l 521 87 l 521 0 l 87 0 m 0 87 l 0 434 l 87 434 l 87 87 l 0 87 m 521 87 l 521 434 l 608 434 l 608 87 l 521 87 m 87 434 l 87 521 l 521 521 l 521 434 l 87 434 z "},"p":{"ha":868,"x_min":0,"x_max":608,"o":"m 521 174 l 521 434 l 608 434 l 608 174 l 521 174 m 0 -174 l 0 521 l 521 521 l 521 434 l 87 434 l 87 174 l 521 174 l 521 87 l 87 87 l 87 -174 l 0 -174 z "},"q":{"ha":868,"x_min":0,"x_max":608,"o":"m 0 174 l 0 434 l 87 434 l 87 174 l 0 174 m 521 -174 l 521 87 l 87 87 l 87 174 l 521 174 l 521 434 l 87 434 l 87 521 l 608 521 l 608 -174 l 521 -174 z "},"r":{"ha":868,"x_min":0,"x_max":608,"o":"m 521 260 l 521 434 l 608 434 l 608 260 l 521 260 m 0 0 l 0 521 l 521 521 l 521 434 l 87 434 l 87 0 l 0 0 z "},"s":{"ha":868,"x_min":0,"x_max":608,"o":"m 0 0 l 0 87 l 521 87 l 521 0 l 0 0 m 521 87 l 521 260 l 608 260 l 608 87 l 521 87 m 87 260 l 87 347 l 521 347 l 521 260 l 87 260 m 0 347 l 0 434 l 87 434 l 87 347 l 0 347 m 87 434 l 87 521 l 608 521 l 608 434 l 87 434 z "},"t":{"ha":868,"x_min":0,"x_max":608,"o":"m 260 0 l 260 87 l 608 87 l 608 0 l 260 0 m 174 87 l 174 434 l 0 434 l 0 521 l 174 521 l 174 694 l 260 694 l 260 521 l 608 521 l 608 434 l 260 434 l 260 87 l 174 87 z "},"u":{"ha":868,"x_min":0,"x_max":608,"o":"m 0 87 l 0 521 l 87 521 l 87 87 l 0 87 m 87 0 l 87 87 l 521 87 l 521 521 l 608 521 l 608 0 l 87 0 z "},"v":{"ha":868,"x_min":0,"x_max":608,"o":"m 260 0 l 260 87 l 347 87 l 347 0 l 260 0 m 174 87 l 174 174 l 260 174 l 260 87 l 174 87 m 347 87 l 347 174 l 434 174 l 434 87 l 347 87 m 87 174 l 87 347 l 174 347 l 174 174 l 87 174 m 434 174 l 434 347 l 521 347 l 521 174 l 434 174 m 0 347 l 0 521 l 87 521 l 87 347 l 0 347 m 521 347 l 521 521 l 608 521 l 608 347 l 521 347 z "},"w":{"ha":868,"x_min":0,"x_max":608,"o":"m 87 0 l 87 174 l 174 174 l 174 0 l 87 0 m 434 0 l 434 174 l 521 174 l 521 0 l 434 0 m 174 174 l 174 260 l 260 260 l 260 174 l 174 174 m 347 174 l 347 260 l 434 260 l 434 174 l 347 174 m 260 260 l 260 434 l 347 434 l 347 260 l 260 260 m 0 174 l 0 521 l 87 521 l 87 174 l 0 174 m 521 174 l 521 521 l 608 521 l 608 174 l 521 174 z "},"x":{"ha":868,"x_min":0,"x_max":608,"o":"m 0 0 l 0 87 l 174 87 l 174 0 l 0 0 m 434 0 l 434 87 l 608 87 l 608 0 l 434 0 m 174 87 l 174 174 l 260 174 l 260 87 l 174 87 m 347 87 l 347 174 l 434 174 l 434 87 l 347 87 m 260 174 l 260 347 l 347 347 l 347 174 l 260 174 m 174 347 l 174 434 l 260 434 l 260 347 l 174 347 m 347 347 l 347 434 l 434 434 l 434 347 l 347 347 m 0 434 l 0 521 l 174 521 l 174 434 l 0 434 m 434 434 l 434 521 l 608 521 l 608 434 l 434 434 z "},"y":{"ha":868,"x_min":0,"x_max":608,"o":"m 87 -174 l 87 -87 l 521 -87 l 521 -174 l 87 -174 m 0 174 l 0 521 l 87 521 l 87 174 l 0 174 m 521 -87 l 521 87 l 87 87 l 87 174 l 521 174 l 521 521 l 608 521 l 608 -87 l 521 -87 z "},"z":{"ha":868,"x_min":0,"x_max":608,"o":"m 0 0 l 0 174 l 87 174 l 87 87 l 608 87 l 608 0 l 0 0 m 87 174 l 87 260 l 260 260 l 260 347 l 521 347 l 521 260 l 347 260 l 347 174 l 87 174 m 521 347 l 521 434 l 0 434 l 0 521 l 608 521 l 608 347 l 521 347 z "},"{":{"ha":868,"x_min":174,"x_max":434,"o":"m 260 0 l 260 260 l 347 260 l 347 87 l 434 87 l 434 0 l 260 0 m 174 260 l 174 347 l 260 347 l 260 260 l 174 260 m 260 347 l 260 608 l 434 608 l 434 521 l 347 521 l 347 347 l 260 347 z "},"|":{"ha":868,"x_min":260,"x_max":347,"o":"m 260 0 l 260 608 l 347 608 l 347 0 l 260 0 z "},"}":{"ha":868,"x_min":174,"x_max":434,"o":"m 174 0 l 174 87 l 260 87 l 260 260 l 347 260 l 347 0 l 174 0 m 347 260 l 347 347 l 434 347 l 434 260 l 347 260 m 260 347 l 260 521 l 174 521 l 174 608 l 347 608 l 347 347 l 260 347 z "},"~":{"ha":868,"x_min":87,"x_max":521,"o":"m 347 174 l 347 260 l 434 260 l 434 174 l 347 174 m 87 174 l 87 347 l 174 347 l 174 174 l 87 174 m 260 260 l 260 347 l 347 347 l 347 260 l 260 260 m 174 347 l 174 434 l 260 434 l 260 347 l 174 347 m 434 260 l 434 434 l 521 434 l 521 260 l 434 260 z "},"¡":{"ha":868,"x_min":0,"x_max":87,"o":"m 0 0 l 0 434 l 87 434 l 87 0 l 0 0 m 0 521 l 0 608 l 87 608 l 87 521 l 0 521 z "},"¢":{"ha":868,"x_min":0,"x_max":608,"o":"m 521 174 l 521 260 l 608 260 l 608 174 l 521 174 m 0 174 l 0 521 l 87 521 l 87 174 l 0 174 m 521 434 l 521 521 l 608 521 l 608 434 l 521 434 m 260 0 l 260 87 l 87 87 l 87 174 l 260 174 l 260 521 l 87 521 l 87 608 l 260 608 l 260 694 l 347 694 l 347 608 l 521 608 l 521 521 l 347 521 l 347 174 l 521 174 l 521 87 l 347 87 l 347 0 l 260 0 z "},"£":{"ha":868,"x_min":0,"x_max":608,"o":"m 0 0 l 0 87 l 260 87 l 260 0 l 0 0 m 347 0 l 347 87 l 608 87 l 608 0 l 347 0 m 260 87 l 260 347 l 87 347 l 87 434 l 260 434 l 260 521 l 347 521 l 347 434 l 521 434 l 521 347 l 347 347 l 347 87 l 260 87 m 347 521 l 347 608 l 608 608 l 608 521 l 347 521 z "},"¤":{"ha":868,"x_min":0,"x_max":608,"o":"m 0 87 l 0 260 l 87 260 l 87 87 l 0 87 m 174 174 l 174 260 l 434 260 l 434 174 l 174 174 m 521 87 l 521 260 l 608 260 l 608 87 l 521 87 m 87 260 l 87 347 l 174 347 l 174 260 l 87 260 m 434 260 l 434 347 l 521 347 l 521 260 l 434 260 m 174 347 l 174 434 l 434 434 l 434 347 l 174 347 m 0 347 l 0 521 l 87 521 l 87 347 l 0 347 m 521 347 l 521 521 l 608 521 l 608 347 l 521 347 z "},"¥":{"ha":868,"x_min":0,"x_max":608,"o":"m 260 0 l 260 87 l 0 87 l 0 174 l 260 174 l 260 260 l 0 260 l 0 347 l 174 347 l 174 434 l 260 434 l 260 347 l 347 347 l 347 434 l 434 434 l 434 347 l 608 347 l 608 260 l 347 260 l 347 174 l 608 174 l 608 87 l 347 87 l 347 0 l 260 0 m 87 434 l 87 521 l 174 521 l 174 434 l 87 434 m 434 434 l 434 521 l 521 521 l 521 434 l 434 434 m 0 521 l 0 608 l 87 608 l 87 521 l 0 521 m 521 521 l 521 608 l 608 608 l 608 521 l 521 521 z "},"¦":{"ha":868,"x_min":260,"x_max":347,"o":"m 260 0 l 260 260 l 347 260 l 347 0 l 260 0 m 260 347 l 260 608 l 347 608 l 347 347 l 260 347 z "},"§":{"ha":868,"x_min":0,"x_max":608,"o":"m 0 0 l 0 87 l 521 87 l 521 0 l 0 0 m 174 174 l 174 260 l 434 260 l 434 174 l 174 174 m 521 87 l 521 260 l 608 260 l 608 87 l 521 87 m 87 260 l 87 347 l 174 347 l 174 260 l 87 260 m 434 260 l 434 347 l 521 347 l 521 260 l 434 260 m 174 347 l 174 434 l 434 434 l 434 347 l 174 347 m 0 347 l 0 521 l 87 521 l 87 347 l 0 347 m 87 521 l 87 608 l 608 608 l 608 521 l 87 521 z "},"¨":{"ha":868,"x_min":174,"x_max":434,"o":"m 174 521 l 174 608 l 260 608 l 260 521 l 174 521 m 347 521 l 347 608 l 434 608 l 434 521 l 347 521 z "},"©":{"ha":868,"x_min":0,"x_max":608,"o":"m 174 0 l 174 87 l 521 87 l 521 0 l 174 0 m 87 87 l 87 174 l 174 174 l 174 87 l 87 87 m 521 87 l 521 260 l 347 260 l 347 347 l 608 347 l 608 87 l 521 87 m 0 174 l 0 434 l 87 434 l 87 174 l 0 174 m 87 434 l 87 521 l 174 521 l 174 434 l 87 434 m 521 434 l 521 521 l 608 521 l 608 434 l 521 434 m 174 521 l 174 608 l 521 608 l 521 521 l 174 521 z "},"ª":{"ha":868,"x_min":0,"x_max":608,"o":"m 0 260 l 0 347 l 87 347 l 87 260 l 0 260 m 87 174 l 87 260 l 521 260 l 521 347 l 87 347 l 87 434 l 521 434 l 521 521 l 608 521 l 608 174 l 87 174 m 87 521 l 87 608 l 521 608 l 521 521 l 87 521 z "},"«":{"ha":868,"x_min":0,"x_max":521,"o":"m 174 87 l 174 174 l 260 174 l 260 87 l 174 87 m 434 87 l 434 174 l 521 174 l 521 87 l 434 87 m 87 174 l 87 260 l 174 260 l 174 174 l 87 174 m 347 174 l 347 260 l 434 260 l 434 174 l 347 174 m 0 260 l 0 347 l 87 347 l 87 260 l 0 260 m 260 260 l 260 347 l 347 347 l 347 260 l 260 260 m 87 347 l 87 434 l 174 434 l 174 347 l 87 347 m 347 347 l 347 434 l 434 434 l 434 347 l 347 347 m 174 434 l 174 521 l 260 521 l 260 434 l 174 434 m 434 434 l 434 521 l 521 521 l 521 434 l 434 434 z "},"¬":{"ha":868,"x_min":0,"x_max":608,"o":"m 521 87 l 521 260 l 0 260 l 0 347 l 608 347 l 608 87 l 521 87 z "},"­":{"ha":868,"x_min":174,"x_max":521,"o":"m 174 260 l 174 347 l 521 347 l 521 260 l 174 260 z "},"®":{"ha":868,"x_min":0,"x_max":608,"o":"m 521 0 l 521 87 l 608 87 l 608 0 l 521 0 m 434 87 l 434 174 l 521 174 l 521 87 l 434 87 m 521 347 l 521 521 l 608 521 l 608 347 l 521 347 m 0 0 l 0 608 l 521 608 l 521 521 l 87 521 l 87 347 l 521 347 l 521 260 l 434 260 l 434 174 l 347 174 l 347 260 l 87 260 l 87 0 l 0 0 z "},"¯":{"ha":868,"x_min":174,"x_max":434,"o":"m 174 521 l 174 608 l 434 608 l 434 521 l 174 521 z "},"°":{"ha":868,"x_min":174,"x_max":434,"o":"m 347 434 l 347 521 l 260 521 l 260 434 l 347 434 m 174 347 l 174 608 l 434 608 l 434 347 l 174 347 z "},"±":{"ha":868,"x_min":87,"x_max":521,"o":"m 87 87 l 87 174 l 521 174 l 521 87 l 87 87 m 260 260 l 260 347 l 87 347 l 87 434 l 260 434 l 260 521 l 347 521 l 347 434 l 521 434 l 521 347 l 347 347 l 347 260 l 260 260 z "},"²":{"ha":868,"x_min":0,"x_max":608,"o":"m 0 174 l 0 347 l 87 347 l 87 260 l 608 260 l 608 174 l 0 174 m 87 347 l 87 434 l 521 434 l 521 347 l 87 347 m 521 434 l 521 521 l 608 521 l 608 434 l 521 434 m 0 521 l 0 608 l 521 608 l 521 521 l 0 521 z "},"³":{"ha":868,"x_min":0,"x_max":608,"o":"m 0 174 l 0 260 l 521 260 l 521 174 l 0 174 m 521 260 l 521 347 l 608 347 l 608 260 l 521 260 m 174 347 l 174 434 l 521 434 l 521 347 l 174 347 m 521 434 l 521 521 l 608 521 l 608 434 l 521 434 m 0 521 l 0 608 l 521 608 l 521 521 l 0 521 z "},"´":{"ha":868,"x_min":174,"x_max":434,"o":"m 174 434 l 174 521 l 260 521 l 260 434 l 174 434 m 260 521 l 260 608 l 434 608 l 434 521 l 260 521 z "},"µ":{"ha":868,"x_min":0,"x_max":608,"o":"m 0 -174 l 0 521 l 87 521 l 87 174 l 174 174 l 174 87 l 87 87 l 87 -174 l 0 -174 m 174 0 l 174 87 l 521 87 l 521 521 l 608 521 l 608 0 l 174 0 z "},"¶":{"ha":868,"x_min":0,"x_max":608,"o":"m 347 0 l 347 260 l 87 260 l 87 347 l 0 347 l 0 521 l 87 521 l 87 608 l 608 608 l 608 0 l 521 0 l 521 521 l 434 521 l 434 0 l 347 0 z "},"·":{"ha":868,"x_min":174,"x_max":347,"o":"m 174 260 l 174 434 l 347 434 l 347 260 l 174 260 z "},"¸":{"ha":868,"x_min":174,"x_max":434,"o":"m 174 0 l 174 87 l 347 87 l 347 0 l 174 0 m 347 87 l 347 174 l 434 174 l 434 87 l 347 87 m 260 174 l 260 260 l 347 260 l 347 174 l 260 174 z "},"¹":{"ha":868,"x_min":0,"x_max":608,"o":"m 0 174 l 0 260 l 260 260 l 260 521 l 87 521 l 87 608 l 347 608 l 347 260 l 608 260 l 608 174 l 0 174 z "},"º":{"ha":868,"x_min":0,"x_max":608,"o":"m 87 174 l 87 260 l 521 260 l 521 174 l 87 174 m 0 260 l 0 521 l 87 521 l 87 260 l 0 260 m 521 260 l 521 521 l 608 521 l 608 260 l 521 260 m 87 521 l 87 608 l 521 608 l 521 521 l 87 521 z "},"»":{"ha":868,"x_min":0,"x_max":521,"o":"m 0 87 l 0 174 l 87 174 l 87 87 l 0 87 m 260 87 l 260 174 l 347 174 l 347 87 l 260 87 m 87 174 l 87 260 l 174 260 l 174 174 l 87 174 m 347 174 l 347 260 l 434 260 l 434 174 l 347 174 m 174 260 l 174 347 l 260 347 l 260 260 l 174 260 m 434 260 l 434 347 l 521 347 l 521 260 l 434 260 m 87 347 l 87 434 l 174 434 l 174 347 l 87 347 m 347 347 l 347 434 l 434 434 l 434 347 l 347 347 m 0 434 l 0 521 l 87 521 l 87 434 l 0 434 m 260 434 l 260 521 l 347 521 l 347 434 l 260 434 z "},"¼":{"ha":868,"x_min":0,"x_max":608,"o":"m 521 0 l 521 174 l 347 174 l 347 434 l 434 434 l 434 260 l 521 260 l 521 434 l 608 434 l 608 0 l 521 0 m 87 174 l 87 521 l 0 521 l 0 608 l 174 608 l 174 174 l 87 174 z "},"½":{"ha":868,"x_min":0,"x_max":608,"o":"m 347 0 l 347 174 l 434 174 l 434 87 l 608 87 l 608 0 l 347 0 m 434 174 l 434 260 l 521 260 l 521 174 l 434 174 m 521 260 l 521 347 l 608 347 l 608 260 l 521 260 m 347 347 l 347 434 l 521 434 l 521 347 l 347 347 m 87 174 l 87 521 l 0 521 l 0 608 l 174 608 l 174 174 l 87 174 z "},"¾":{"ha":868,"x_min":0,"x_max":608,"o":"m 0 174 l 0 260 l 174 260 l 174 174 l 0 174 m 174 260 l 174 347 l 260 347 l 260 260 l 174 260 m 0 347 l 0 434 l 174 434 l 174 347 l 0 347 m 521 0 l 521 174 l 347 174 l 347 434 l 434 434 l 434 260 l 521 260 l 521 434 l 608 434 l 608 0 l 521 0 m 174 434 l 174 521 l 260 521 l 260 434 l 174 434 m 0 521 l 0 608 l 174 608 l 174 521 l 0 521 z "},"¿":{"ha":868,"x_min":0,"x_max":608,"o":"m 87 0 l 87 87 l 521 87 l 521 0 l 87 0 m 521 87 l 521 174 l 608 174 l 608 87 l 521 87 m 0 87 l 0 260 l 87 260 l 87 87 l 0 87 m 87 260 l 87 347 l 260 347 l 260 260 l 87 260 m 260 347 l 260 434 l 347 434 l 347 347 l 260 347 m 260 521 l 260 608 l 347 608 l 347 521 l 260 521 z "},"À":{"ha":868,"x_min":0,"x_max":608,"o":"m 0 0 l 0 174 l 87 174 l 87 0 l 0 0 m 521 0 l 521 174 l 608 174 l 608 0 l 521 0 m 87 174 l 87 347 l 174 347 l 174 260 l 434 260 l 434 347 l 521 347 l 521 174 l 87 174 m 174 347 l 174 521 l 260 521 l 260 347 l 174 347 m 347 347 l 347 521 l 434 521 l 434 347 l 347 347 m 260 521 l 260 608 l 347 608 l 347 521 l 260 521 m 260 694 l 260 781 l 347 781 l 347 694 l 260 694 m 87 781 l 87 868 l 260 868 l 260 781 l 87 781 z "},"Á":{"ha":868,"x_min":0,"x_max":608,"o":"m 0 0 l 0 174 l 87 174 l 87 0 l 0 0 m 521 0 l 521 174 l 608 174 l 608 0 l 521 0 m 87 174 l 87 347 l 174 347 l 174 260 l 434 260 l 434 347 l 521 347 l 521 174 l 87 174 m 174 347 l 174 521 l 260 521 l 260 347 l 174 347 m 347 347 l 347 521 l 434 521 l 434 347 l 347 347 m 260 521 l 260 608 l 347 608 l 347 521 l 260 521 m 260 694 l 260 781 l 347 781 l 347 694 l 260 694 m 347 781 l 347 868 l 521 868 l 521 781 l 347 781 z "},"Â":{"ha":868,"x_min":0,"x_max":608,"o":"m 0 0 l 0 174 l 87 174 l 87 0 l 0 0 m 521 0 l 521 174 l 608 174 l 608 0 l 521 0 m 87 174 l 87 347 l 174 347 l 174 260 l 434 260 l 434 347 l 521 347 l 521 174 l 87 174 m 174 347 l 174 521 l 260 521 l 260 347 l 174 347 m 347 347 l 347 521 l 434 521 l 434 347 l 347 347 m 260 521 l 260 608 l 347 608 l 347 521 l 260 521 m 87 694 l 87 781 l 174 781 l 174 694 l 87 694 m 434 694 l 434 781 l 521 781 l 521 694 l 434 694 m 174 781 l 174 868 l 260 868 l 260 781 l 174 781 m 347 781 l 347 868 l 434 868 l 434 781 l 347 781 m 260 868 l 260 955 l 347 955 l 347 868 l 260 868 z "},"Ã":{"ha":868,"x_min":0,"x_max":608,"o":"m 0 0 l 0 174 l 87 174 l 87 0 l 0 0 m 521 0 l 521 174 l 608 174 l 608 0 l 521 0 m 87 174 l 87 347 l 174 347 l 174 260 l 434 260 l 434 347 l 521 347 l 521 174 l 87 174 m 174 347 l 174 521 l 260 521 l 260 347 l 174 347 m 347 347 l 347 521 l 434 521 l 434 347 l 347 347 m 260 521 l 260 608 l 347 608 l 347 521 l 260 521 m 347 608 l 347 694 l 434 694 l 434 608 l 347 608 m 87 608 l 87 781 l 174 781 l 174 608 l 87 608 m 260 694 l 260 781 l 347 781 l 347 694 l 260 694 m 434 694 l 434 781 l 521 781 l 521 694 l 434 694 m 174 781 l 174 868 l 260 868 l 260 781 l 174 781 z "},"Ä":{"ha":868,"x_min":0,"x_max":608,"o":"m 0 0 l 0 174 l 87 174 l 87 0 l 0 0 m 521 0 l 521 174 l 608 174 l 608 0 l 521 0 m 87 174 l 87 347 l 174 347 l 174 260 l 434 260 l 434 347 l 521 347 l 521 174 l 87 174 m 174 347 l 174 521 l 260 521 l 260 347 l 174 347 m 347 347 l 347 521 l 434 521 l 434 347 l 347 347 m 260 521 l 260 608 l 347 608 l 347 521 l 260 521 m 174 694 l 174 781 l 260 781 l 260 694 l 174 694 m 347 694 l 347 781 l 434 781 l 434 694 l 347 694 z "},"Å":{"ha":868,"x_min":0,"x_max":608,"o":"m 0 0 l 0 174 l 87 174 l 87 0 l 0 0 m 521 0 l 521 174 l 608 174 l 608 0 l 521 0 m 87 174 l 87 347 l 174 347 l 174 260 l 434 260 l 434 347 l 521 347 l 521 174 l 87 174 m 174 347 l 174 521 l 260 521 l 260 347 l 174 347 m 347 347 l 347 521 l 434 521 l 434 347 l 347 347 m 260 521 l 260 694 l 347 694 l 347 521 l 260 521 m 174 694 l 174 781 l 260 781 l 260 694 l 174 694 m 347 694 l 347 781 l 434 781 l 434 694 l 347 694 m 260 781 l 260 868 l 347 868 l 347 781 l 260 781 z "},"Æ":{"ha":868,"x_min":0,"x_max":608,"o":"m 0 0 l 0 174 l 87 174 l 87 0 l 0 0 m 260 0 l 260 174 l 87 174 l 87 347 l 174 347 l 174 260 l 260 260 l 260 347 l 174 347 l 174 521 l 260 521 l 260 608 l 608 608 l 608 521 l 347 521 l 347 347 l 521 347 l 521 260 l 347 260 l 347 87 l 608 87 l 608 0 l 260 0 z "},"Ç":{"ha":868,"x_min":0,"x_max":608,"o":"m 174 -260 l 174 -174 l 347 -174 l 347 -260 l 174 -260 m 347 -174 l 347 -87 l 434 -87 l 434 -174 l 347 -174 m 260 -87 l 260 0 l 174 0 l 174 87 l 521 87 l 521 0 l 347 0 l 347 -87 l 260 -87 m 87 87 l 87 174 l 174 174 l 174 87 l 87 87 m 521 87 l 521 174 l 608 174 l 608 87 l 521 87 m 0 174 l 0 434 l 87 434 l 87 174 l 0 174 m 87 434 l 87 521 l 174 521 l 174 434 l 87 434 m 521 434 l 521 521 l 608 521 l 608 434 l 521 434 m 174 521 l 174 608 l 521 608 l 521 521 l 174 521 z "},"È":{"ha":868,"x_min":0,"x_max":608,"o":"m 0 0 l 0 608 l 608 608 l 608 521 l 87 521 l 87 347 l 434 347 l 434 260 l 87 260 l 87 87 l 608 87 l 608 0 l 0 0 m 260 694 l 260 781 l 347 781 l 347 694 l 260 694 m 87 781 l 87 868 l 260 868 l 260 781 l 87 781 z "},"É":{"ha":868,"x_min":0,"x_max":608,"o":"m 0 0 l 0 608 l 608 608 l 608 521 l 87 521 l 87 347 l 434 347 l 434 260 l 87 260 l 87 87 l 608 87 l 608 0 l 0 0 m 260 694 l 260 781 l 347 781 l 347 694 l 260 694 m 347 781 l 347 868 l 521 868 l 521 781 l 347 781 z "},"Ê":{"ha":868,"x_min":0,"x_max":608,"o":"m 0 0 l 0 608 l 608 608 l 608 521 l 87 521 l 87 347 l 434 347 l 434 260 l 87 260 l 87 87 l 608 87 l 608 0 l 0 0 m 87 694 l 87 781 l 174 781 l 174 694 l 87 694 m 434 694 l 434 781 l 521 781 l 521 694 l 434 694 m 174 781 l 174 868 l 260 868 l 260 781 l 174 781 m 347 781 l 347 868 l 434 868 l 434 781 l 347 781 m 260 868 l 260 955 l 347 955 l 347 868 l 260 868 z "},"Ë":{"ha":868,"x_min":0,"x_max":608,"o":"m 0 0 l 0 608 l 608 608 l 608 521 l 87 521 l 87 347 l 434 347 l 434 260 l 87 260 l 87 87 l 608 87 l 608 0 l 0 0 m 174 694 l 174 781 l 260 781 l 260 694 l 174 694 m 347 694 l 347 781 l 434 781 l 434 694 l 347 694 z "},"Ì":{"ha":868,"x_min":0,"x_max":608,"o":"m 0 0 l 0 87 l 260 87 l 260 521 l 0 521 l 0 608 l 608 608 l 608 521 l 347 521 l 347 87 l 608 87 l 608 0 l 0 0 m 260 694 l 260 781 l 347 781 l 347 694 l 260 694 m 87 781 l 87 868 l 260 868 l 260 781 l 87 781 z "},"Í":{"ha":868,"x_min":0,"x_max":608,"o":"m 0 0 l 0 87 l 260 87 l 260 521 l 0 521 l 0 608 l 608 608 l 608 521 l 347 521 l 347 87 l 608 87 l 608 0 l 0 0 m 260 694 l 260 781 l 347 781 l 347 694 l 260 694 m 347 781 l 347 868 l 521 868 l 521 781 l 347 781 z "},"Î":{"ha":868,"x_min":0,"x_max":608,"o":"m 0 0 l 0 87 l 260 87 l 260 521 l 0 521 l 0 608 l 608 608 l 608 521 l 347 521 l 347 87 l 608 87 l 608 0 l 0 0 m 87 694 l 87 781 l 174 781 l 174 694 l 87 694 m 434 694 l 434 781 l 521 781 l 521 694 l 434 694 m 174 781 l 174 868 l 260 868 l 260 781 l 174 781 m 347 781 l 347 868 l 434 868 l 434 781 l 347 781 m 260 868 l 260 955 l 347 955 l 347 868 l 260 868 z "},"Ï":{"ha":868,"x_min":0,"x_max":608,"o":"m 0 0 l 0 87 l 260 87 l 260 521 l 0 521 l 0 608 l 608 608 l 608 521 l 347 521 l 347 87 l 608 87 l 608 0 l 0 0 m 174 694 l 174 781 l 260 781 l 260 694 l 174 694 m 347 694 l 347 781 l 434 781 l 434 694 l 347 694 z "},"Ð":{"ha":868,"x_min":0,"x_max":608,"o":"m 434 87 l 434 174 l 521 174 l 521 87 l 434 87 m 521 174 l 521 434 l 608 434 l 608 174 l 521 174 m 434 434 l 434 521 l 521 521 l 521 434 l 434 434 m 87 0 l 87 260 l 0 260 l 0 347 l 87 347 l 87 608 l 434 608 l 434 521 l 174 521 l 174 347 l 347 347 l 347 260 l 174 260 l 174 87 l 434 87 l 434 0 l 87 0 z "},"Ñ":{"ha":868,"x_min":0,"x_max":608,"o":"m 347 87 l 347 260 l 434 260 l 434 87 l 347 87 m 260 260 l 260 434 l 347 434 l 347 260 l 260 260 m 174 434 l 174 521 l 260 521 l 260 434 l 174 434 m 0 0 l 0 608 l 174 608 l 174 521 l 87 521 l 87 0 l 0 0 m 434 0 l 434 87 l 521 87 l 521 608 l 608 608 l 608 0 l 434 0 m 347 694 l 347 781 l 434 781 l 434 694 l 347 694 m 87 694 l 87 868 l 174 868 l 174 694 l 87 694 m 260 781 l 260 868 l 347 868 l 347 781 l 260 781 m 434 781 l 434 868 l 521 868 l 521 781 l 434 781 m 174 868 l 174 955 l 260 955 l 260 868 l 174 868 z "},"Ò":{"ha":868,"x_min":0,"x_max":608,"o":"m 174 0 l 174 87 l 434 87 l 434 0 l 174 0 m 87 87 l 87 174 l 174 174 l 174 87 l 87 87 m 434 87 l 434 174 l 521 174 l 521 87 l 434 87 m 0 174 l 0 434 l 87 434 l 87 174 l 0 174 m 521 174 l 521 434 l 608 434 l 608 174 l 521 174 m 87 434 l 87 521 l 174 521 l 174 434 l 87 434 m 434 434 l 434 521 l 521 521 l 521 434 l 434 434 m 174 521 l 174 608 l 434 608 l 434 521 l 174 521 m 260 694 l 260 781 l 347 781 l 347 694 l 260 694 m 87 781 l 87 868 l 260 868 l 260 781 l 87 781 z "},"Ó":{"ha":868,"x_min":0,"x_max":608,"o":"m 174 0 l 174 87 l 434 87 l 434 0 l 174 0 m 87 87 l 87 174 l 174 174 l 174 87 l 87 87 m 434 87 l 434 174 l 521 174 l 521 87 l 434 87 m 0 174 l 0 434 l 87 434 l 87 174 l 0 174 m 521 174 l 521 434 l 608 434 l 608 174 l 521 174 m 87 434 l 87 521 l 174 521 l 174 434 l 87 434 m 434 434 l 434 521 l 521 521 l 521 434 l 434 434 m 174 521 l 174 608 l 434 608 l 434 521 l 174 521 m 260 694 l 260 781 l 347 781 l 347 694 l 260 694 m 347 781 l 347 868 l 521 868 l 521 781 l 347 781 z "},"Ô":{"ha":868,"x_min":0,"x_max":608,"o":"m 174 0 l 174 87 l 434 87 l 434 0 l 174 0 m 87 87 l 87 174 l 174 174 l 174 87 l 87 87 m 434 87 l 434 174 l 521 174 l 521 87 l 434 87 m 0 174 l 0 434 l 87 434 l 87 174 l 0 174 m 521 174 l 521 434 l 608 434 l 608 174 l 521 174 m 87 434 l 87 521 l 174 521 l 174 434 l 87 434 m 434 434 l 434 521 l 521 521 l 521 434 l 434 434 m 174 521 l 174 608 l 434 608 l 434 521 l 174 521 m 87 694 l 87 781 l 174 781 l 174 694 l 87 694 m 434 694 l 434 781 l 521 781 l 521 694 l 434 694 m 174 781 l 174 868 l 260 868 l 260 781 l 174 781 m 347 781 l 347 868 l 434 868 l 434 781 l 347 781 m 260 868 l 260 955 l 347 955 l 347 868 l 260 868 z "},"Õ":{"ha":868,"x_min":0,"x_max":608,"o":"m 174 0 l 174 87 l 434 87 l 434 0 l 174 0 m 87 87 l 87 174 l 174 174 l 174 87 l 87 87 m 434 87 l 434 174 l 521 174 l 521 87 l 434 87 m 0 174 l 0 434 l 87 434 l 87 174 l 0 174 m 521 174 l 521 434 l 608 434 l 608 174 l 521 174 m 87 434 l 87 521 l 174 521 l 174 434 l 87 434 m 434 434 l 434 521 l 521 521 l 521 434 l 434 434 m 174 521 l 174 608 l 434 608 l 434 521 l 174 521 m 347 694 l 347 781 l 434 781 l 434 694 l 347 694 m 87 694 l 87 868 l 174 868 l 174 694 l 87 694 m 260 781 l 260 868 l 347 868 l 347 781 l 260 781 m 434 781 l 434 868 l 521 868 l 521 781 l 434 781 m 174 868 l 174 955 l 260 955 l 260 868 l 174 868 z "},"Ö":{"ha":868,"x_min":0,"x_max":608,"o":"m 174 0 l 174 87 l 434 87 l 434 0 l 174 0 m 87 87 l 87 174 l 174 174 l 174 87 l 87 87 m 434 87 l 434 174 l 521 174 l 521 87 l 434 87 m 0 174 l 0 434 l 87 434 l 87 174 l 0 174 m 521 174 l 521 434 l 608 434 l 608 174 l 521 174 m 87 434 l 87 521 l 174 521 l 174 434 l 87 434 m 434 434 l 434 521 l 521 521 l 521 434 l 434 434 m 174 521 l 174 608 l 434 608 l 434 521 l 174 521 m 174 694 l 174 781 l 260 781 l 260 694 l 174 694 m 347 694 l 347 781 l 434 781 l 434 694 l 347 694 z "},"×":{"ha":868,"x_min":87,"x_max":521,"o":"m 87 87 l 87 174 l 174 174 l 174 87 l 87 87 m 434 87 l 434 174 l 521 174 l 521 87 l 434 87 m 174 174 l 174 260 l 260 260 l 260 174 l 174 174 m 347 174 l 347 260 l 434 260 l 434 174 l 347 174 m 260 260 l 260 347 l 347 347 l 347 260 l 260 260 m 174 347 l 174 434 l 260 434 l 260 347 l 174 347 m 347 347 l 347 434 l 434 434 l 434 347 l 347 347 m 87 434 l 87 521 l 174 521 l 174 434 l 87 434 m 434 434 l 434 521 l 521 521 l 521 434 l 434 434 z "},"Ø":{"ha":868,"x_min":0,"x_max":608,"o":"m 0 0 l 0 87 l 87 87 l 87 0 l 0 0 m 174 0 l 174 87 l 434 87 l 434 0 l 174 0 m 87 87 l 87 174 l 174 174 l 174 87 l 87 87 m 434 87 l 434 174 l 521 174 l 521 87 l 434 87 m 174 174 l 174 260 l 260 260 l 260 174 l 174 174 m 260 260 l 260 347 l 347 347 l 347 260 l 260 260 m 0 174 l 0 434 l 87 434 l 87 174 l 0 174 m 347 347 l 347 434 l 434 434 l 434 347 l 347 347 m 521 174 l 521 434 l 608 434 l 608 174 l 521 174 m 87 434 l 87 521 l 174 521 l 174 434 l 87 434 m 434 434 l 434 521 l 521 521 l 521 434 l 434 434 m 174 521 l 174 608 l 434 608 l 434 521 l 174 521 m 521 521 l 521 608 l 608 608 l 608 521 l 521 521 z "},"Ù":{"ha":868,"x_min":0,"x_max":608,"o":"m 174 0 l 174 87 l 434 87 l 434 0 l 174 0 m 87 87 l 87 174 l 174 174 l 174 87 l 87 87 m 434 87 l 434 174 l 521 174 l 521 87 l 434 87 m 0 174 l 0 608 l 87 608 l 87 174 l 0 174 m 521 174 l 521 608 l 608 608 l 608 174 l 521 174 m 260 694 l 260 781 l 347 781 l 347 694 l 260 694 m 87 781 l 87 868 l 260 868 l 260 781 l 87 781 z "},"Ú":{"ha":868,"x_min":0,"x_max":608,"o":"m 174 0 l 174 87 l 434 87 l 434 0 l 174 0 m 87 87 l 87 174 l 174 174 l 174 87 l 87 87 m 434 87 l 434 174 l 521 174 l 521 87 l 434 87 m 0 174 l 0 608 l 87 608 l 87 174 l 0 174 m 521 174 l 521 608 l 608 608 l 608 174 l 521 174 m 260 694 l 260 781 l 347 781 l 347 694 l 260 694 m 347 781 l 347 868 l 521 868 l 521 781 l 347 781 z "},"Û":{"ha":868,"x_min":0,"x_max":608,"o":"m 174 0 l 174 87 l 434 87 l 434 0 l 174 0 m 87 87 l 87 174 l 174 174 l 174 87 l 87 87 m 434 87 l 434 174 l 521 174 l 521 87 l 434 87 m 0 174 l 0 608 l 87 608 l 87 174 l 0 174 m 521 174 l 521 608 l 608 608 l 608 174 l 521 174 m 87 694 l 87 781 l 174 781 l 174 694 l 87 694 m 434 694 l 434 781 l 521 781 l 521 694 l 434 694 m 174 781 l 174 868 l 260 868 l 260 781 l 174 781 m 347 781 l 347 868 l 434 868 l 434 781 l 347 781 m 260 868 l 260 955 l 347 955 l 347 868 l 260 868 z "},"Ü":{"ha":868,"x_min":0,"x_max":608,"o":"m 174 0 l 174 87 l 434 87 l 434 0 l 174 0 m 87 87 l 87 174 l 174 174 l 174 87 l 87 87 m 434 87 l 434 174 l 521 174 l 521 87 l 434 87 m 0 174 l 0 608 l 87 608 l 87 174 l 0 174 m 521 174 l 521 608 l 608 608 l 608 174 l 521 174 m 174 694 l 174 781 l 260 781 l 260 694 l 174 694 m 347 694 l 347 781 l 434 781 l 434 694 l 347 694 z "},"Ý":{"ha":868,"x_min":0,"x_max":608,"o":"m 260 0 l 260 347 l 347 347 l 347 0 l 260 0 m 174 347 l 174 434 l 260 434 l 260 347 l 174 347 m 347 347 l 347 434 l 434 434 l 434 347 l 347 347 m 87 434 l 87 521 l 174 521 l 174 434 l 87 434 m 434 434 l 434 521 l 521 521 l 521 434 l 434 434 m 0 521 l 0 608 l 87 608 l 87 521 l 0 521 m 521 521 l 521 608 l 608 608 l 608 521 l 521 521 m 260 694 l 260 781 l 347 781 l 347 694 l 260 694 m 347 781 l 347 868 l 521 868 l 521 781 l 347 781 z "},"Þ":{"ha":868,"x_min":0,"x_max":608,"o":"m 521 174 l 521 434 l 608 434 l 608 174 l 521 174 m 0 0 l 0 608 l 87 608 l 87 521 l 521 521 l 521 434 l 87 434 l 87 174 l 521 174 l 521 87 l 87 87 l 87 0 l 0 0 z "},"ß":{"ha":868,"x_min":0,"x_max":608,"o":"m 260 0 l 260 87 l 521 87 l 521 0 l 260 0 m 174 87 l 174 174 l 260 174 l 260 87 l 174 87 m 521 87 l 521 260 l 608 260 l 608 87 l 521 87 m 260 260 l 260 347 l 521 347 l 521 260 l 260 260 m 0 0 l 0 608 l 434 608 l 434 521 l 260 521 l 260 347 l 174 347 l 174 521 l 87 521 l 87 0 l 0 0 z "},"à":{"ha":868,"x_min":0,"x_max":608,"o":"m 0 87 l 0 260 l 87 260 l 87 87 l 0 87 m 87 0 l 87 87 l 521 87 l 521 260 l 87 260 l 87 347 l 521 347 l 521 434 l 608 434 l 608 0 l 87 0 m 87 434 l 87 521 l 521 521 l 521 434 l 87 434 m 260 608 l 260 694 l 347 694 l 347 608 l 260 608 m 87 694 l 87 781 l 260 781 l 260 694 l 87 694 z "},"á":{"ha":868,"x_min":0,"x_max":608,"o":"m 0 87 l 0 260 l 87 260 l 87 87 l 0 87 m 87 0 l 87 87 l 521 87 l 521 260 l 87 260 l 87 347 l 521 347 l 521 434 l 608 434 l 608 0 l 87 0 m 87 434 l 87 521 l 521 521 l 521 434 l 87 434 m 260 608 l 260 694 l 347 694 l 347 608 l 260 608 m 347 694 l 347 781 l 521 781 l 521 694 l 347 694 z "},"â":{"ha":868,"x_min":0,"x_max":608,"o":"m 0 87 l 0 260 l 87 260 l 87 87 l 0 87 m 87 0 l 87 87 l 521 87 l 521 260 l 87 260 l 87 347 l 521 347 l 521 434 l 608 434 l 608 0 l 87 0 m 87 434 l 87 521 l 521 521 l 521 434 l 87 434 m 87 608 l 87 694 l 174 694 l 174 608 l 87 608 m 434 608 l 434 694 l 521 694 l 521 608 l 434 608 m 174 694 l 174 781 l 260 781 l 260 694 l 174 694 m 347 694 l 347 781 l 434 781 l 434 694 l 347 694 m 260 781 l 260 868 l 347 868 l 347 781 l 260 781 z "},"ã":{"ha":868,"x_min":0,"x_max":608,"o":"m 0 87 l 0 260 l 87 260 l 87 87 l 0 87 m 87 0 l 87 87 l 521 87 l 521 260 l 87 260 l 87 347 l 521 347 l 521 434 l 608 434 l 608 0 l 87 0 m 87 434 l 87 521 l 521 521 l 521 434 l 87 434 m 347 608 l 347 694 l 434 694 l 434 608 l 347 608 m 87 608 l 87 781 l 174 781 l 174 608 l 87 608 m 260 694 l 260 781 l 347 781 l 347 694 l 260 694 m 434 694 l 434 781 l 521 781 l 521 694 l 434 694 m 174 781 l 174 868 l 260 868 l 260 781 l 174 781 z "},"ä":{"ha":868,"x_min":0,"x_max":608,"o":"m 0 87 l 0 260 l 87 260 l 87 87 l 0 87 m 87 0 l 87 87 l 521 87 l 521 260 l 87 260 l 87 347 l 521 347 l 521 434 l 608 434 l 608 0 l 87 0 m 87 434 l 87 521 l 521 521 l 521 434 l 87 434 m 174 608 l 174 694 l 260 694 l 260 608 l 174 608 m 347 608 l 347 694 l 434 694 l 434 608 l 347 608 z "},"å":{"ha":868,"x_min":0,"x_max":608,"o":"m 0 87 l 0 260 l 87 260 l 87 87 l 0 87 m 87 0 l 87 87 l 521 87 l 521 260 l 87 260 l 87 347 l 521 347 l 521 434 l 608 434 l 608 0 l 87 0 m 87 434 l 87 521 l 521 521 l 521 434 l 87 434 m 260 608 l 260 694 l 347 694 l 347 608 l 260 608 m 174 694 l 174 781 l 260 781 l 260 694 l 174 694 m 347 694 l 347 781 l 434 781 l 434 694 l 347 694 m 260 781 l 260 868 l 347 868 l 347 781 l 260 781 z "},"æ":{"ha":868,"x_min":0,"x_max":608,"o":"m 87 0 l 87 87 l 260 87 l 260 0 l 87 0 m 347 0 l 347 87 l 521 87 l 521 0 l 347 0 m 521 87 l 521 174 l 608 174 l 608 87 l 521 87 m 0 87 l 0 260 l 87 260 l 87 87 l 0 87 m 260 87 l 260 260 l 87 260 l 87 347 l 260 347 l 260 434 l 347 434 l 347 347 l 521 347 l 521 434 l 608 434 l 608 260 l 347 260 l 347 87 l 260 87 m 87 434 l 87 521 l 260 521 l 260 434 l 87 434 m 347 434 l 347 521 l 521 521 l 521 434 l 347 434 z "},"ç":{"ha":868,"x_min":0,"x_max":608,"o":"m 174 -260 l 174 -174 l 347 -174 l 347 -260 l 174 -260 m 347 -174 l 347 -87 l 434 -87 l 434 -174 l 347 -174 m 260 -87 l 260 0 l 87 0 l 87 87 l 521 87 l 521 0 l 347 0 l 347 -87 l 260 -87 m 521 87 l 521 174 l 608 174 l 608 87 l 521 87 m 0 87 l 0 434 l 87 434 l 87 87 l 0 87 m 521 347 l 521 434 l 608 434 l 608 347 l 521 347 m 87 434 l 87 521 l 521 521 l 521 434 l 87 434 z "},"è":{"ha":868,"x_min":0,"x_max":608,"o":"m 87 0 l 87 87 l 521 87 l 521 0 l 87 0 m 521 87 l 521 174 l 608 174 l 608 87 l 521 87 m 0 87 l 0 434 l 87 434 l 87 347 l 521 347 l 521 434 l 608 434 l 608 260 l 87 260 l 87 87 l 0 87 m 87 434 l 87 521 l 521 521 l 521 434 l 87 434 m 260 608 l 260 694 l 347 694 l 347 608 l 260 608 m 87 694 l 87 781 l 260 781 l 260 694 l 87 694 z "},"é":{"ha":868,"x_min":0,"x_max":608,"o":"m 87 0 l 87 87 l 521 87 l 521 0 l 87 0 m 521 87 l 521 174 l 608 174 l 608 87 l 521 87 m 0 87 l 0 434 l 87 434 l 87 347 l 521 347 l 521 434 l 608 434 l 608 260 l 87 260 l 87 87 l 0 87 m 87 434 l 87 521 l 521 521 l 521 434 l 87 434 m 260 608 l 260 694 l 347 694 l 347 608 l 260 608 m 347 694 l 347 781 l 521 781 l 521 694 l 347 694 z "},"ê":{"ha":868,"x_min":0,"x_max":608,"o":"m 87 0 l 87 87 l 521 87 l 521 0 l 87 0 m 521 87 l 521 174 l 608 174 l 608 87 l 521 87 m 0 87 l 0 434 l 87 434 l 87 347 l 521 347 l 521 434 l 608 434 l 608 260 l 87 260 l 87 87 l 0 87 m 87 434 l 87 521 l 521 521 l 521 434 l 87 434 m 87 608 l 87 694 l 174 694 l 174 608 l 87 608 m 434 608 l 434 694 l 521 694 l 521 608 l 434 608 m 174 694 l 174 781 l 260 781 l 260 694 l 174 694 m 347 694 l 347 781 l 434 781 l 434 694 l 347 694 m 260 781 l 260 868 l 347 868 l 347 781 l 260 781 z "},"ë":{"ha":868,"x_min":0,"x_max":608,"o":"m 87 0 l 87 87 l 521 87 l 521 0 l 87 0 m 521 87 l 521 174 l 608 174 l 608 87 l 521 87 m 0 87 l 0 434 l 87 434 l 87 347 l 521 347 l 521 434 l 608 434 l 608 260 l 87 260 l 87 87 l 0 87 m 87 434 l 87 521 l 521 521 l 521 434 l 87 434 m 174 608 l 174 694 l 260 694 l 260 608 l 174 608 m 347 608 l 347 694 l 434 694 l 434 608 l 347 608 z "},"ì":{"ha":868,"x_min":0,"x_max":608,"o":"m 0 0 l 0 87 l 260 87 l 260 434 l 87 434 l 87 521 l 347 521 l 347 87 l 608 87 l 608 0 l 0 0 m 260 608 l 260 694 l 347 694 l 347 608 l 260 608 m 87 694 l 87 781 l 260 781 l 260 694 l 87 694 z "},"í":{"ha":868,"x_min":0,"x_max":608,"o":"m 0 0 l 0 87 l 260 87 l 260 434 l 87 434 l 87 521 l 347 521 l 347 87 l 608 87 l 608 0 l 0 0 m 260 608 l 260 694 l 347 694 l 347 608 l 260 608 m 347 694 l 347 781 l 521 781 l 521 694 l 347 694 z "},"î":{"ha":868,"x_min":0,"x_max":608,"o":"m 0 0 l 0 87 l 260 87 l 260 434 l 87 434 l 87 521 l 347 521 l 347 87 l 608 87 l 608 0 l 0 0 m 87 608 l 87 694 l 174 694 l 174 608 l 87 608 m 434 608 l 434 694 l 521 694 l 521 608 l 434 608 m 174 694 l 174 781 l 260 781 l 260 694 l 174 694 m 347 694 l 347 781 l 434 781 l 434 694 l 347 694 m 260 781 l 260 868 l 347 868 l 347 781 l 260 781 z "},"ï":{"ha":868,"x_min":0,"x_max":608,"o":"m 0 0 l 0 87 l 260 87 l 260 434 l 87 434 l 87 521 l 347 521 l 347 87 l 608 87 l 608 0 l 0 0 m 174 608 l 174 694 l 260 694 l 260 608 l 174 608 m 347 608 l 347 694 l 434 694 l 434 608 l 347 608 z "},"ð":{"ha":868,"x_min":0,"x_max":608,"o":"m 521 87 l 521 434 l 608 434 l 608 87 l 521 87 m 87 0 l 87 260 l 0 260 l 0 347 l 87 347 l 87 521 l 521 521 l 521 434 l 174 434 l 174 347 l 347 347 l 347 260 l 174 260 l 174 87 l 521 87 l 521 0 l 87 0 z "},"ñ":{"ha":868,"x_min":0,"x_max":608,"o":"m 521 0 l 521 434 l 608 434 l 608 0 l 521 0 m 0 0 l 0 521 l 521 521 l 521 434 l 87 434 l 87 0 l 0 0 m 347 608 l 347 694 l 434 694 l 434 608 l 347 608 m 87 608 l 87 781 l 174 781 l 174 608 l 87 608 m 260 694 l 260 781 l 347 781 l 347 694 l 260 694 m 434 694 l 434 781 l 521 781 l 521 694 l 434 694 m 174 781 l 174 868 l 260 868 l 260 781 l 174 781 z "},"ò":{"ha":868,"x_min":0,"x_max":608,"o":"m 87 0 l 87 87 l 521 87 l 521 0 l 87 0 m 0 87 l 0 434 l 87 434 l 87 87 l 0 87 m 521 87 l 521 434 l 608 434 l 608 87 l 521 87 m 87 434 l 87 521 l 521 521 l 521 434 l 87 434 m 260 608 l 260 694 l 347 694 l 347 608 l 260 608 m 87 694 l 87 781 l 260 781 l 260 694 l 87 694 z "},"ó":{"ha":868,"x_min":0,"x_max":608,"o":"m 87 0 l 87 87 l 521 87 l 521 0 l 87 0 m 0 87 l 0 434 l 87 434 l 87 87 l 0 87 m 521 87 l 521 434 l 608 434 l 608 87 l 521 87 m 87 434 l 87 521 l 521 521 l 521 434 l 87 434 m 260 608 l 260 694 l 347 694 l 347 608 l 260 608 m 347 694 l 347 781 l 521 781 l 521 694 l 347 694 z "},"ô":{"ha":868,"x_min":0,"x_max":608,"o":"m 87 0 l 87 87 l 521 87 l 521 0 l 87 0 m 0 87 l 0 434 l 87 434 l 87 87 l 0 87 m 521 87 l 521 434 l 608 434 l 608 87 l 521 87 m 87 434 l 87 521 l 521 521 l 521 434 l 87 434 m 87 608 l 87 694 l 174 694 l 174 608 l 87 608 m 434 608 l 434 694 l 521 694 l 521 608 l 434 608 m 174 694 l 174 781 l 260 781 l 260 694 l 174 694 m 347 694 l 347 781 l 434 781 l 434 694 l 347 694 m 260 781 l 260 868 l 347 868 l 347 781 l 260 781 z "},"õ":{"ha":868,"x_min":0,"x_max":608,"o":"m 87 0 l 87 87 l 521 87 l 521 0 l 87 0 m 0 87 l 0 434 l 87 434 l 87 87 l 0 87 m 521 87 l 521 434 l 608 434 l 608 87 l 521 87 m 87 434 l 87 521 l 521 521 l 521 434 l 87 434 m 347 608 l 347 694 l 434 694 l 434 608 l 347 608 m 87 608 l 87 781 l 174 781 l 174 608 l 87 608 m 260 694 l 260 781 l 347 781 l 347 694 l 260 694 m 434 694 l 434 781 l 521 781 l 521 694 l 434 694 m 174 781 l 174 868 l 260 868 l 260 781 l 174 781 z "},"ö":{"ha":868,"x_min":0,"x_max":608,"o":"m 87 0 l 87 87 l 521 87 l 521 0 l 87 0 m 0 87 l 0 434 l 87 434 l 87 87 l 0 87 m 521 87 l 521 434 l 608 434 l 608 87 l 521 87 m 87 434 l 87 521 l 521 521 l 521 434 l 87 434 m 174 608 l 174 694 l 260 694 l 260 608 l 174 608 m 347 608 l 347 694 l 434 694 l 434 608 l 347 608 z "},"÷":{"ha":868,"x_min":87,"x_max":521,"o":"m 260 87 l 260 174 l 347 174 l 347 87 l 260 87 m 87 260 l 87 347 l 521 347 l 521 260 l 87 260 m 260 434 l 260 521 l 347 521 l 347 434 l 260 434 z "},"ø":{"ha":868,"x_min":0,"x_max":608,"o":"m 174 174 l 174 260 l 260 260 l 260 174 l 174 174 m 260 260 l 260 347 l 347 347 l 347 260 l 260 260 m 87 0 l 87 87 l 0 87 l 0 434 l 87 434 l 87 174 l 174 174 l 174 87 l 521 87 l 521 0 l 87 0 m 521 87 l 521 434 l 608 434 l 608 87 l 521 87 m 347 347 l 347 434 l 87 434 l 87 521 l 521 521 l 521 434 l 434 434 l 434 347 l 347 347 z "},"ù":{"ha":868,"x_min":0,"x_max":608,"o":"m 0 87 l 0 521 l 87 521 l 87 87 l 0 87 m 87 0 l 87 87 l 521 87 l 521 521 l 608 521 l 608 0 l 87 0 m 260 608 l 260 694 l 347 694 l 347 608 l 260 608 m 87 694 l 87 781 l 260 781 l 260 694 l 87 694 z "},"ú":{"ha":868,"x_min":0,"x_max":608,"o":"m 0 87 l 0 521 l 87 521 l 87 87 l 0 87 m 87 0 l 87 87 l 521 87 l 521 521 l 608 521 l 608 0 l 87 0 m 260 608 l 260 694 l 347 694 l 347 608 l 260 608 m 347 694 l 347 781 l 521 781 l 521 694 l 347 694 z "},"û":{"ha":868,"x_min":0,"x_max":608,"o":"m 0 87 l 0 521 l 87 521 l 87 87 l 0 87 m 87 0 l 87 87 l 521 87 l 521 521 l 608 521 l 608 0 l 87 0 m 87 608 l 87 694 l 174 694 l 174 608 l 87 608 m 434 608 l 434 694 l 521 694 l 521 608 l 434 608 m 174 694 l 174 781 l 260 781 l 260 694 l 174 694 m 347 694 l 347 781 l 434 781 l 434 694 l 347 694 m 260 781 l 260 868 l 347 868 l 347 781 l 260 781 z "},"ü":{"ha":868,"x_min":0,"x_max":608,"o":"m 0 87 l 0 521 l 87 521 l 87 87 l 0 87 m 87 0 l 87 87 l 521 87 l 521 521 l 608 521 l 608 0 l 87 0 m 174 608 l 174 694 l 260 694 l 260 608 l 174 608 m 347 608 l 347 694 l 434 694 l 434 608 l 347 608 z "},"ý":{"ha":868,"x_min":0,"x_max":608,"o":"m 87 -174 l 87 -87 l 521 -87 l 521 -174 l 87 -174 m 0 174 l 0 521 l 87 521 l 87 174 l 0 174 m 521 -87 l 521 87 l 87 87 l 87 174 l 521 174 l 521 521 l 608 521 l 608 -87 l 521 -87 m 260 608 l 260 694 l 347 694 l 347 608 l 260 608 m 87 694 l 87 781 l 260 781 l 260 694 l 87 694 z "},"þ":{"ha":868,"x_min":0,"x_max":608,"o":"m 521 174 l 521 347 l 608 347 l 608 174 l 521 174 m 0 0 l 0 521 l 87 521 l 87 434 l 521 434 l 521 347 l 87 347 l 87 174 l 521 174 l 521 87 l 87 87 l 87 0 l 0 0 z "},"ÿ":{"ha":868,"x_min":0,"x_max":608,"o":"m 87 -174 l 87 -87 l 521 -87 l 521 -174 l 87 -174 m 0 174 l 0 521 l 87 521 l 87 174 l 0 174 m 521 -87 l 521 87 l 87 87 l 87 174 l 521 174 l 521 521 l 608 521 l 608 -87 l 521 -87 m 174 608 l 174 694 l 260 694 l 260 608 l 174 608 m 347 608 l 347 694 l 434 694 l 434 608 l 347 608 z "},"Ů":{"ha":868,"x_min":0,"x_max":608,"o":"m 174 0 l 174 87 l 434 87 l 434 0 l 174 0 m 87 87 l 87 174 l 174 174 l 174 87 l 87 87 m 434 87 l 434 174 l 521 174 l 521 87 l 434 87 m 0 174 l 0 608 l 87 608 l 87 174 l 0 174 m 521 174 l 521 608 l 608 608 l 608 174 l 521 174 z "},"ů":{"ha":868,"x_min":0,"x_max":608,"o":"m 0 87 l 0 521 l 87 521 l 87 87 l 0 87 m 87 0 l 87 87 l 521 87 l 521 521 l 608 521 l 608 0 l 87 0 z "},"Ÿ":{"ha":868,"x_min":0,"x_max":608,"o":"m 260 0 l 260 347 l 347 347 l 347 0 l 260 0 m 174 347 l 174 434 l 260 434 l 260 347 l 174 347 m 347 347 l 347 434 l 434 434 l 434 347 l 347 347 m 87 434 l 87 521 l 174 521 l 174 434 l 87 434 m 434 434 l 434 521 l 521 521 l 521 434 l 434 434 m 0 521 l 0 608 l 87 608 l 87 521 l 0 521 m 521 521 l 521 608 l 608 608 l 608 521 l 521 521 m 174 694 l 174 781 l 260 781 l 260 694 l 174 694 m 347 694 l 347 781 l 434 781 l 434 694 l 347 694 z "},"Α":{"ha":868,"x_min":0,"x_max":608,"o":"m 0 0 l 0 174 l 87 174 l 87 0 l 0 0 m 521 0 l 521 174 l 608 174 l 608 0 l 521 0 m 87 174 l 87 347 l 174 347 l 174 260 l 434 260 l 434 347 l 521 347 l 521 174 l 87 174 m 174 347 l 174 521 l 260 521 l 260 347 l 174 347 m 347 347 l 347 521 l 434 521 l 434 347 l 347 347 m 260 521 l 260 608 l 347 608 l 347 521 l 260 521 z "},"Β":{"ha":868,"x_min":0,"x_max":608,"o":"m 521 87 l 521 260 l 608 260 l 608 87 l 521 87 m 521 347 l 521 521 l 608 521 l 608 347 l 521 347 m 0 0 l 0 608 l 521 608 l 521 521 l 87 521 l 87 347 l 521 347 l 521 260 l 87 260 l 87 87 l 521 87 l 521 0 l 0 0 z "},"Γ":{"ha":868,"x_min":0,"x_max":608,"o":"m 0 0 l 0 608 l 608 608 l 608 521 l 87 521 l 87 0 l 0 0 z "},"Δ":{"ha":868,"x_min":0,"x_max":608,"o":"m 0 0 l 0 174 l 87 174 l 87 87 l 521 87 l 521 174 l 608 174 l 608 0 l 0 0 m 87 174 l 87 347 l 174 347 l 174 174 l 87 174 m 434 174 l 434 347 l 521 347 l 521 174 l 434 174 m 174 347 l 174 521 l 260 521 l 260 347 l 174 347 m 347 347 l 347 521 l 434 521 l 434 347 l 347 347 m 260 521 l 260 608 l 347 608 l 347 521 l 260 521 z "},"Ε":{"ha":868,"x_min":0,"x_max":608,"o":"m 0 0 l 0 608 l 608 608 l 608 521 l 87 521 l 87 347 l 434 347 l 434 260 l 87 260 l 87 87 l 608 87 l 608 0 l 0 0 z "},"Ζ":{"ha":868,"x_min":0,"x_max":608,"o":"m 0 0 l 0 87 l 87 87 l 87 174 l 174 174 l 174 87 l 608 87 l 608 0 l 0 0 m 174 174 l 174 260 l 260 260 l 260 174 l 174 174 m 260 260 l 260 347 l 347 347 l 347 260 l 260 260 m 347 347 l 347 434 l 434 434 l 434 347 l 347 347 m 434 434 l 434 521 l 0 521 l 0 608 l 608 608 l 608 521 l 521 521 l 521 434 l 434 434 z "},"Η":{"ha":868,"x_min":0,"x_max":608,"o":"m 0 0 l 0 608 l 87 608 l 87 347 l 521 347 l 521 608 l 608 608 l 608 0 l 521 0 l 521 260 l 87 260 l 87 0 l 0 0 z "},"Θ":{"ha":868,"x_min":0,"x_max":608,"o":"m 174 0 l 174 87 l 434 87 l 434 0 l 174 0 m 87 87 l 87 174 l 174 174 l 174 87 l 87 87 m 434 87 l 434 174 l 521 174 l 521 87 l 434 87 m 174 260 l 174 347 l 434 347 l 434 260 l 174 260 m 0 174 l 0 434 l 87 434 l 87 174 l 0 174 m 521 174 l 521 434 l 608 434 l 608 174 l 521 174 m 87 434 l 87 521 l 174 521 l 174 434 l 87 434 m 434 434 l 434 521 l 521 521 l 521 434 l 434 434 m 174 521 l 174 608 l 434 608 l 434 521 l 174 521 z "},"Ι":{"ha":868,"x_min":0,"x_max":608,"o":"m 0 0 l 0 87 l 260 87 l 260 521 l 0 521 l 0 608 l 608 608 l 608 521 l 347 521 l 347 87 l 608 87 l 608 0 l 0 0 z "},"Κ":{"ha":868,"x_min":0,"x_max":608,"o":"m 521 0 l 521 87 l 608 87 l 608 0 l 521 0 m 434 87 l 434 174 l 521 174 l 521 87 l 434 87 m 347 174 l 347 260 l 434 260 l 434 174 l 347 174 m 347 347 l 347 434 l 434 434 l 434 347 l 347 347 m 434 434 l 434 521 l 521 521 l 521 434 l 434 434 m 0 0 l 0 608 l 87 608 l 87 347 l 347 347 l 347 260 l 87 260 l 87 0 l 0 0 m 521 521 l 521 608 l 608 608 l 608 521 l 521 521 z "},"Λ":{"ha":868,"x_min":0,"x_max":608,"o":"m 0 0 l 0 174 l 87 174 l 87 0 l 0 0 m 521 0 l 521 174 l 608 174 l 608 0 l 521 0 m 87 174 l 87 347 l 174 347 l 174 174 l 87 174 m 434 174 l 434 347 l 521 347 l 521 174 l 434 174 m 174 347 l 174 521 l 260 521 l 260 347 l 174 347 m 347 347 l 347 521 l 434 521 l 434 347 l 347 347 m 260 521 l 260 608 l 347 608 l 347 521 l 260 521 z "},"Μ":{"ha":868,"x_min":0,"x_max":608,"o":"m 260 0 l 260 174 l 347 174 l 347 0 l 260 0 m 174 174 l 174 347 l 260 347 l 260 174 l 174 174 m 347 174 l 347 347 l 434 347 l 434 174 l 347 174 m 0 0 l 0 608 l 87 608 l 87 521 l 174 521 l 174 347 l 87 347 l 87 0 l 0 0 m 521 0 l 521 347 l 434 347 l 434 521 l 521 521 l 521 608 l 608 608 l 608 0 l 521 0 z "},"Ν":{"ha":868,"x_min":0,"x_max":608,"o":"m 347 174 l 347 260 l 434 260 l 434 174 l 347 174 m 260 260 l 260 347 l 347 347 l 347 260 l 260 260 m 174 347 l 174 434 l 260 434 l 260 347 l 174 347 m 0 0 l 0 608 l 87 608 l 87 521 l 174 521 l 174 434 l 87 434 l 87 0 l 0 0 m 521 0 l 521 87 l 434 87 l 434 174 l 521 174 l 521 608 l 608 608 l 608 0 l 521 0 z "},"Ξ":{"ha":868,"x_min":0,"x_max":608,"o":"m 0 0 l 0 87 l 608 87 l 608 0 l 0 0 m 87 260 l 87 347 l 521 347 l 521 260 l 87 260 m 0 521 l 0 608 l 608 608 l 608 521 l 0 521 z "},"Ο":{"ha":868,"x_min":0,"x_max":608,"o":"m 174 0 l 174 87 l 434 87 l 434 0 l 174 0 m 87 87 l 87 174 l 174 174 l 174 87 l 87 87 m 434 87 l 434 174 l 521 174 l 521 87 l 434 87 m 0 174 l 0 434 l 87 434 l 87 174 l 0 174 m 521 174 l 521 434 l 608 434 l 608 174 l 521 174 m 87 434 l 87 521 l 174 521 l 174 434 l 87 434 m 434 434 l 434 521 l 521 521 l 521 434 l 434 434 m 174 521 l 174 608 l 434 608 l 434 521 l 174 521 z "},"Π":{"ha":868,"x_min":0,"x_max":608,"o":"m 87 0 l 87 521 l 0 521 l 0 608 l 608 608 l 608 521 l 521 521 l 521 0 l 434 0 l 434 521 l 174 521 l 174 0 l 87 0 z "},"Ρ":{"ha":868,"x_min":0,"x_max":608,"o":"m 521 347 l 521 521 l 608 521 l 608 347 l 521 347 m 0 0 l 0 608 l 521 608 l 521 521 l 87 521 l 87 347 l 521 347 l 521 260 l 87 260 l 87 0 l 0 0 z "},"Σ":{"ha":868,"x_min":0,"x_max":608,"o":"m 0 0 l 0 87 l 87 87 l 87 174 l 174 174 l 174 87 l 608 87 l 608 0 l 0 0 m 174 174 l 174 260 l 260 260 l 260 174 l 174 174 m 260 260 l 260 347 l 347 347 l 347 260 l 260 260 m 174 347 l 174 434 l 260 434 l 260 347 l 174 347 m 87 434 l 87 521 l 0 521 l 0 608 l 608 608 l 608 521 l 174 521 l 174 434 l 87 434 z "},"Τ":{"ha":868,"x_min":0,"x_max":608,"o":"m 260 0 l 260 521 l 0 521 l 0 608 l 608 608 l 608 521 l 347 521 l 347 0 l 260 0 z "},"Υ":{"ha":868,"x_min":0,"x_max":608,"o":"m 260 0 l 260 347 l 347 347 l 347 0 l 260 0 m 174 347 l 174 434 l 260 434 l 260 347 l 174 347 m 347 347 l 347 434 l 434 434 l 434 347 l 347 347 m 87 434 l 87 521 l 174 521 l 174 434 l 87 434 m 434 434 l 434 521 l 521 521 l 521 434 l 434 434 m 0 521 l 0 608 l 87 608 l 87 521 l 0 521 m 521 521 l 521 608 l 608 608 l 608 521 l 521 521 z "},"Φ":{"ha":868,"x_min":0,"x_max":608,"o":"m 0 174 l 0 434 l 87 434 l 87 174 l 0 174 m 521 174 l 521 434 l 608 434 l 608 174 l 521 174 m 260 0 l 260 87 l 87 87 l 87 174 l 260 174 l 260 434 l 87 434 l 87 521 l 260 521 l 260 608 l 347 608 l 347 521 l 521 521 l 521 434 l 347 434 l 347 174 l 521 174 l 521 87 l 347 87 l 347 0 l 260 0 z "},"Χ":{"ha":868,"x_min":0,"x_max":608,"o":"m 0 0 l 0 87 l 87 87 l 87 0 l 0 0 m 521 0 l 521 87 l 608 87 l 608 0 l 521 0 m 87 87 l 87 174 l 174 174 l 174 87 l 87 87 m 434 87 l 434 174 l 521 174 l 521 87 l 434 87 m 174 174 l 174 260 l 260 260 l 260 174 l 174 174 m 347 174 l 347 260 l 434 260 l 434 174 l 347 174 m 260 260 l 260 347 l 347 347 l 347 260 l 260 260 m 174 347 l 174 434 l 260 434 l 260 347 l 174 347 m 347 347 l 347 434 l 434 434 l 434 347 l 347 347 m 87 434 l 87 521 l 174 521 l 174 434 l 87 434 m 434 434 l 434 521 l 521 521 l 521 434 l 434 434 m 0 521 l 0 608 l 87 608 l 87 521 l 0 521 m 521 521 l 521 608 l 608 608 l 608 521 l 521 521 z "},"Ψ":{"ha":868,"x_min":0,"x_max":608,"o":"m 87 347 l 87 434 l 174 434 l 174 347 l 87 347 m 434 347 l 434 434 l 521 434 l 521 347 l 434 347 m 0 434 l 0 608 l 87 608 l 87 434 l 0 434 m 260 0 l 260 260 l 174 260 l 174 347 l 260 347 l 260 608 l 347 608 l 347 347 l 434 347 l 434 260 l 347 260 l 347 0 l 260 0 m 521 434 l 521 608 l 608 608 l 608 434 l 521 434 z "},"Ω":{"ha":868,"x_min":0,"x_max":608,"o":"m 0 0 l 0 87 l 174 87 l 174 174 l 260 174 l 260 0 l 0 0 m 347 0 l 347 174 l 434 174 l 434 87 l 608 87 l 608 0 l 347 0 m 87 174 l 87 260 l 174 260 l 174 174 l 87 174 m 434 174 l 434 260 l 521 260 l 521 174 l 434 174 m 0 260 l 0 434 l 87 434 l 87 260 l 0 260 m 521 260 l 521 434 l 608 434 l 608 260 l 521 260 m 87 434 l 87 521 l 174 521 l 174 434 l 87 434 m 434 434 l 434 521 l 521 521 l 521 434 l 434 434 m 174 521 l 174 608 l 434 608 l 434 521 l 174 521 z "},"α":{"ha":868,"x_min":0,"x_max":608,"o":"m 87 0 l 87 87 l 434 87 l 434 0 l 87 0 m 521 0 l 521 87 l 608 87 l 608 0 l 521 0 m 0 87 l 0 434 l 87 434 l 87 87 l 0 87 m 434 87 l 434 434 l 521 434 l 521 87 l 434 87 m 87 434 l 87 521 l 434 521 l 434 434 l 87 434 m 521 434 l 521 521 l 608 521 l 608 434 l 521 434 z "},"β":{"ha":868,"x_min":0,"x_max":608,"o":"m 521 87 l 521 260 l 608 260 l 608 87 l 521 87 m 0 -174 l 0 521 l 87 521 l 87 347 l 521 347 l 521 260 l 87 260 l 87 87 l 521 87 l 521 0 l 87 0 l 87 -174 l 0 -174 m 521 347 l 521 521 l 608 521 l 608 347 l 521 347 m 87 521 l 87 608 l 521 608 l 521 521 l 87 521 z "},"γ":{"ha":868,"x_min":0,"x_max":608,"o":"m 260 -174 l 260 260 l 347 260 l 347 -174 l 260 -174 m 174 260 l 174 347 l 260 347 l 260 260 l 174 260 m 347 260 l 347 347 l 434 347 l 434 260 l 347 260 m 87 347 l 87 434 l 174 434 l 174 347 l 87 347 m 434 347 l 434 434 l 521 434 l 521 347 l 434 347 m 0 434 l 0 521 l 87 521 l 87 434 l 0 434 m 521 434 l 521 521 l 608 521 l 608 434 l 521 434 z "},"δ":{"ha":868,"x_min":0,"x_max":608,"o":"m 87 0 l 87 87 l 521 87 l 521 0 l 87 0 m 0 87 l 0 260 l 87 260 l 87 87 l 0 87 m 521 87 l 521 260 l 608 260 l 608 87 l 521 87 m 87 260 l 87 347 l 260 347 l 260 434 l 347 434 l 347 347 l 521 347 l 521 260 l 87 260 m 174 434 l 174 521 l 87 521 l 87 608 l 434 608 l 434 521 l 260 521 l 260 434 l 174 434 z "},"ε":{"ha":868,"x_min":0,"x_max":608,"o":"m 174 0 l 174 87 l 608 87 l 608 0 l 174 0 m 87 87 l 87 174 l 174 174 l 174 87 l 87 87 m 0 174 l 0 347 l 87 347 l 87 434 l 174 434 l 174 347 l 521 347 l 521 260 l 87 260 l 87 174 l 0 174 m 174 434 l 174 521 l 608 521 l 608 434 l 174 434 z "},"ζ":{"ha":868,"x_min":0,"x_max":521,"o":"m 260 -174 l 260 -87 l 434 -87 l 434 -174 l 260 -174 m 434 -87 l 434 0 l 521 0 l 521 -87 l 434 -87 m 87 0 l 87 87 l 434 87 l 434 0 l 87 0 m 0 87 l 0 260 l 87 260 l 87 87 l 0 87 m 87 260 l 87 347 l 174 347 l 174 260 l 87 260 m 174 347 l 174 434 l 260 434 l 260 347 l 174 347 m 260 434 l 260 521 l 87 521 l 87 608 l 521 608 l 521 521 l 347 521 l 347 434 l 260 434 z "},"η":{"ha":868,"x_min":0,"x_max":608,"o":"m 521 -174 l 521 434 l 608 434 l 608 -174 l 521 -174 m 0 0 l 0 521 l 521 521 l 521 434 l 87 434 l 87 0 l 0 0 z "},"θ":{"ha":868,"x_min":0,"x_max":608,"o":"m 87 0 l 87 87 l 521 87 l 521 0 l 87 0 m 260 174 l 260 347 l 347 347 l 347 174 l 260 174 m 0 87 l 0 434 l 87 434 l 87 87 l 0 87 m 521 87 l 521 434 l 608 434 l 608 87 l 521 87 m 87 434 l 87 521 l 521 521 l 521 434 l 87 434 z "},"ι":{"ha":868,"x_min":260,"x_max":347,"o":"m 260 0 l 260 521 l 347 521 l 347 0 l 260 0 z "},"κ":{"ha":868,"x_min":0,"x_max":608,"o":"m 521 0 l 521 87 l 608 87 l 608 0 l 521 0 m 434 87 l 434 174 l 521 174 l 521 87 l 434 87 m 347 174 l 347 260 l 434 260 l 434 174 l 347 174 m 347 347 l 347 434 l 434 434 l 434 347 l 347 347 m 0 0 l 0 521 l 87 521 l 87 347 l 347 347 l 347 260 l 87 260 l 87 0 l 0 0 m 434 434 l 434 521 l 521 521 l 521 434 l 434 434 z "},"λ":{"ha":868,"x_min":0,"x_max":608,"o":"m 0 0 l 0 174 l 87 174 l 87 0 l 0 0 m 521 0 l 521 174 l 608 174 l 608 0 l 521 0 m 87 174 l 87 260 l 174 260 l 174 174 l 87 174 m 434 174 l 434 260 l 521 260 l 521 174 l 434 174 m 174 260 l 174 347 l 260 347 l 260 260 l 174 260 m 347 260 l 347 347 l 434 347 l 434 260 l 347 260 m 260 347 l 260 434 l 347 434 l 347 347 l 260 347 m 174 434 l 174 521 l 260 521 l 260 434 l 174 434 m 87 521 l 87 608 l 174 608 l 174 521 l 87 521 z "},"μ":{"ha":868,"x_min":0,"x_max":608,"o":"m 0 -174 l 0 521 l 87 521 l 87 174 l 174 174 l 174 87 l 87 87 l 87 -174 l 0 -174 m 174 0 l 174 87 l 521 87 l 521 521 l 608 521 l 608 0 l 174 0 z "},"ν":{"ha":868,"x_min":0,"x_max":608,"o":"m 260 0 l 260 87 l 347 87 l 347 0 l 260 0 m 174 87 l 174 174 l 260 174 l 260 87 l 174 87 m 347 87 l 347 174 l 434 174 l 434 87 l 347 87 m 87 174 l 87 260 l 174 260 l 174 174 l 87 174 m 434 174 l 434 260 l 521 260 l 521 174 l 434 174 m 0 260 l 0 521 l 87 521 l 87 260 l 0 260 m 521 260 l 521 521 l 608 521 l 608 260 l 521 260 z "},"ξ":{"ha":868,"x_min":0,"x_max":521,"o":"m 260 -174 l 260 -87 l 434 -87 l 434 -174 l 260 -174 m 434 -87 l 434 0 l 521 0 l 521 -87 l 434 -87 m 87 0 l 87 87 l 434 87 l 434 0 l 87 0 m 0 87 l 0 260 l 87 260 l 87 87 l 0 87 m 87 260 l 87 347 l 347 347 l 347 260 l 87 260 m 0 347 l 0 434 l 87 434 l 87 347 l 0 347 m 87 434 l 87 521 l 0 521 l 0 608 l 521 608 l 521 521 l 174 521 l 174 434 l 87 434 z "},"ο":{"ha":868,"x_min":0,"x_max":608,"o":"m 87 0 l 87 87 l 521 87 l 521 0 l 87 0 m 0 87 l 0 434 l 87 434 l 87 87 l 0 87 m 521 87 l 521 434 l 608 434 l 608 87 l 521 87 m 87 434 l 87 521 l 521 521 l 521 434 l 87 434 z "},"π":{"ha":868,"x_min":0,"x_max":608,"o":"m 0 347 l 0 434 l 87 434 l 87 347 l 0 347 m 174 0 l 174 434 l 87 434 l 87 521 l 608 521 l 608 434 l 521 434 l 521 0 l 434 0 l 434 434 l 260 434 l 260 0 l 174 0 z "},"ρ":{"ha":868,"x_min":0,"x_max":608,"o":"m 0 -174 l 0 434 l 87 434 l 87 87 l 521 87 l 521 0 l 87 0 l 87 -174 l 0 -174 m 521 87 l 521 434 l 608 434 l 608 87 l 521 87 m 87 434 l 87 521 l 521 521 l 521 434 l 87 434 z "},"ς":{"ha":868,"x_min":0,"x_max":608,"o":"m 347 -174 l 347 -87 l 521 -87 l 521 -174 l 347 -174 m 521 -87 l 521 0 l 608 0 l 608 -87 l 521 -87 m 174 0 l 174 87 l 521 87 l 521 0 l 174 0 m 87 87 l 87 174 l 174 174 l 174 87 l 87 87 m 0 174 l 0 347 l 87 347 l 87 174 l 0 174 m 87 347 l 87 434 l 174 434 l 174 347 l 87 347 m 174 434 l 174 521 l 608 521 l 608 434 l 174 434 z "},"σ":{"ha":868,"x_min":0,"x_max":608,"o":"m 87 0 l 87 87 l 434 87 l 434 0 l 87 0 m 0 87 l 0 434 l 87 434 l 87 87 l 0 87 m 434 87 l 434 434 l 87 434 l 87 521 l 608 521 l 608 434 l 521 434 l 521 87 l 434 87 z "},"τ":{"ha":868,"x_min":0,"x_max":608,"o":"m 260 0 l 260 434 l 0 434 l 0 521 l 608 521 l 608 434 l 347 434 l 347 0 l 260 0 z "},"υ":{"ha":868,"x_min":0,"x_max":608,"o":"m 174 0 l 174 87 l 434 87 l 434 0 l 174 0 m 87 87 l 87 174 l 174 174 l 174 87 l 87 87 m 434 87 l 434 174 l 521 174 l 521 87 l 434 87 m 0 174 l 0 521 l 87 521 l 87 174 l 0 174 m 521 174 l 521 521 l 608 521 l 608 174 l 521 174 z "},"φ":{"ha":868,"x_min":0,"x_max":608,"o":"m 0 260 l 0 347 l 87 347 l 87 260 l 0 260 m 521 260 l 521 347 l 608 347 l 608 260 l 521 260 m 260 0 l 260 174 l 87 174 l 87 260 l 260 260 l 260 347 l 87 347 l 87 434 l 260 434 l 260 608 l 347 608 l 347 434 l 521 434 l 521 347 l 347 347 l 347 260 l 521 260 l 521 174 l 347 174 l 347 0 l 260 0 z "},"χ":{"ha":868,"x_min":0,"x_max":608,"o":"m 0 -87 l 0 0 l 87 0 l 87 -87 l 0 -87 m 521 -87 l 521 0 l 608 0 l 608 -87 l 521 -87 m 87 0 l 87 87 l 174 87 l 174 0 l 87 0 m 434 0 l 434 87 l 521 87 l 521 0 l 434 0 m 174 87 l 174 174 l 260 174 l 260 87 l 174 87 m 347 87 l 347 174 l 434 174 l 434 87 l 347 87 m 260 174 l 260 260 l 347 260 l 347 174 l 260 174 m 174 260 l 174 347 l 260 347 l 260 260 l 174 260 m 347 260 l 347 347 l 434 347 l 434 260 l 347 260 m 87 347 l 87 434 l 174 434 l 174 347 l 87 347 m 434 347 l 434 434 l 521 434 l 521 347 l 434 347 m 0 434 l 0 521 l 87 521 l 87 434 l 0 434 m 521 434 l 521 521 l 608 521 l 608 434 l 521 434 z "},"ψ":{"ha":868,"x_min":0,"x_max":608,"o":"m 0 260 l 0 521 l 87 521 l 87 260 l 0 260 m 260 -87 l 260 174 l 87 174 l 87 260 l 260 260 l 260 521 l 347 521 l 347 260 l 521 260 l 521 174 l 347 174 l 347 -87 l 260 -87 m 521 260 l 521 521 l 608 521 l 608 260 l 521 260 z "},"ω":{"ha":868,"x_min":0,"x_max":608,"o":"m 87 0 l 87 87 l 260 87 l 260 0 l 87 0 m 347 0 l 347 87 l 521 87 l 521 0 l 347 0 m 0 87 l 0 521 l 87 521 l 87 87 l 0 87 m 260 87 l 260 521 l 347 521 l 347 87 l 260 87 m 521 87 l 521 521 l 608 521 l 608 87 l 521 87 z "},"—":{"ha":868,"x_min":0,"x_max":608,"o":"m 0 260 l 0 347 l 608 347 l 608 260 l 0 260 z "},"‘":{"ha":868,"x_min":174,"x_max":347,"o":"m 174 434 l 174 608 l 260 608 l 260 521 l 347 521 l 347 434 l 174 434 m 260 608 l 260 694 l 347 694 l 347 608 l 260 608 z "},"’":{"ha":868,"x_min":174,"x_max":347,"o":"m 174 434 l 174 521 l 260 521 l 260 434 l 174 434 m 260 521 l 260 608 l 174 608 l 174 694 l 347 694 l 347 521 l 260 521 z "},"‚":{"ha":868,"x_min":260,"x_max":434,"o":"m 260 0 l 260 87 l 347 87 l 347 0 l 260 0 m 347 87 l 347 174 l 260 174 l 260 260 l 434 260 l 434 87 l 347 87 z "},"‛":{"ha":868,"x_min":174,"x_max":347,"o":"m 174 347 l 174 521 l 260 521 l 260 434 l 347 434 l 347 347 l 174 347 m 260 521 l 260 608 l 347 608 l 347 521 l 260 521 z "},"“":{"ha":868,"x_min":87,"x_max":521,"o":"m 87 434 l 87 608 l 174 608 l 174 521 l 260 521 l 260 434 l 87 434 m 347 434 l 347 608 l 434 608 l 434 521 l 521 521 l 521 434 l 347 434 m 174 608 l 174 694 l 260 694 l 260 608 l 174 608 m 434 608 l 434 694 l 521 694 l 521 608 l 434 608 z "},"”":{"ha":868,"x_min":87,"x_max":521,"o":"m 87 434 l 87 521 l 174 521 l 174 434 l 87 434 m 347 434 l 347 521 l 434 521 l 434 434 l 347 434 m 174 521 l 174 608 l 87 608 l 87 694 l 260 694 l 260 521 l 174 521 m 434 521 l 434 608 l 347 608 l 347 694 l 521 694 l 521 521 l 434 521 z "},"„":{"ha":868,"x_min":87,"x_max":521,"o":"m 87 0 l 87 87 l 174 87 l 174 0 l 87 0 m 347 0 l 347 87 l 434 87 l 434 0 l 347 0 m 174 87 l 174 174 l 87 174 l 87 260 l 260 260 l 260 87 l 174 87 m 434 87 l 434 174 l 347 174 l 347 260 l 521 260 l 521 87 l 434 87 z "},"†":{"ha":868,"x_min":174,"x_max":434,"o":"m 260 87 l 260 347 l 347 347 l 347 87 l 260 87 m 174 347 l 174 434 l 260 434 l 260 347 l 174 347 m 347 347 l 347 434 l 434 434 l 434 347 l 347 347 m 260 434 l 260 608 l 347 608 l 347 434 l 260 434 z "},"•":{"ha":868,"x_min":174,"x_max":434,"o":"m 347 260 l 347 347 l 260 347 l 260 260 l 347 260 m 174 174 l 174 434 l 434 434 l 434 174 l 174 174 z "},"‹":{"ha":868,"x_min":174,"x_max":434,"o":"m 347 87 l 347 174 l 434 174 l 434 87 l 347 87 m 260 174 l 260 260 l 347 260 l 347 174 l 260 174 m 174 260 l 174 347 l 260 347 l 260 260 l 174 260 m 260 347 l 260 434 l 347 434 l 347 347 l 260 347 m 347 434 l 347 521 l 434 521 l 434 434 l 347 434 z "},"›":{"ha":868,"x_min":174,"x_max":434,"o":"m 174 87 l 174 174 l 260 174 l 260 87 l 174 87 m 260 174 l 260 260 l 347 260 l 347 174 l 260 174 m 347 260 l 347 347 l 434 347 l 434 260 l 347 260 m 260 347 l 260 434 l 347 434 l 347 347 l 260 347 m 174 434 l 174 521 l 260 521 l 260 434 l 174 434 z "},"€":{"ha":868,"x_min":0,"x_max":608,"o":"m 174 0 l 174 87 l 521 87 l 521 0 l 174 0 m 521 87 l 521 174 l 608 174 l 608 87 l 521 87 m 87 87 l 87 174 l 0 174 l 0 260 l 87 260 l 87 347 l 0 347 l 0 434 l 87 434 l 87 521 l 174 521 l 174 434 l 434 434 l 434 347 l 174 347 l 174 260 l 434 260 l 434 174 l 174 174 l 174 87 l 87 87 m 521 434 l 521 521 l 608 521 l 608 434 l 521 434 m 174 521 l 174 608 l 521 608 l 521 521 l 174 521 z "},"ﬁ":{"ha":868,"x_min":0,"x_max":608,"o":"m 174 0 l 174 434 l 0 434 l 0 521 l 174 521 l 174 608 l 260 608 l 260 521 l 608 521 l 608 0 l 521 0 l 521 434 l 260 434 l 260 0 l 174 0 m 260 608 l 260 694 l 608 694 l 608 608 l 260 608 z "},"ﬂ":{"ha":868,"x_min":0,"x_max":608,"o":"m 174 0 l 174 434 l 0 434 l 0 521 l 174 521 l 174 608 l 260 608 l 260 521 l 521 521 l 521 608 l 260 608 l 260 694 l 608 694 l 608 0 l 521 0 l 521 434 l 260 434 l 260 0 l 174 0 z "}}}
